<mxfile host="Electron" modified="2023-09-26T16:34:31.154Z" agent="Mozilla/5.0 (Windows NT 10.0; Win64; x64) AppleWebKit/537.36 (KHTML, like Gecko) draw.io/21.7.5 Chrome/114.0.5735.289 Electron/25.8.1 Safari/537.36" etag="YrxTl8Gsb8TmHYKlbPf-" version="21.7.5" type="device" pages="2">
  <diagram name="P03-07a" id="nI23ShnO0eUhFZkXhwkX">
    <mxGraphModel dx="1381" dy="831" grid="1" gridSize="10" guides="1" tooltips="1" connect="1" arrows="1" fold="1" page="1" pageScale="1" pageWidth="850" pageHeight="1100" math="0" shadow="0">
      <root>
        <mxCell id="0" />
        <mxCell id="1" parent="0" />
        <mxCell id="FI4Dv5eyBoiZmgYLNW9x-107" style="edgeStyle=orthogonalEdgeStyle;rounded=0;orthogonalLoop=1;jettySize=auto;html=1;endArrow=ERmany;endFill=0;startArrow=ERmany;startFill=0;dashed=1;strokeWidth=2;" parent="1" source="FI4Dv5eyBoiZmgYLNW9x-2" edge="1">
          <mxGeometry relative="1" as="geometry">
            <mxPoint x="640" y="135" as="targetPoint" />
          </mxGeometry>
        </mxCell>
        <mxCell id="FI4Dv5eyBoiZmgYLNW9x-136" value="&lt;b&gt;have&lt;br&gt;assigned&lt;br&gt;&lt;/b&gt;" style="edgeLabel;html=1;align=center;verticalAlign=middle;resizable=0;points=[];" parent="FI4Dv5eyBoiZmgYLNW9x-107" connectable="0" vertex="1">
          <mxGeometry x="0.1019" y="1" relative="1" as="geometry">
            <mxPoint x="-1" as="offset" />
          </mxGeometry>
        </mxCell>
        <mxCell id="FI4Dv5eyBoiZmgYLNW9x-1" value="Player" style="shape=table;startSize=30;container=1;collapsible=1;childLayout=tableLayout;fixedRows=1;rowLines=0;fontStyle=1;align=center;resizeLast=1;html=1;" parent="1" vertex="1">
          <mxGeometry x="310" y="80" width="180" height="270" as="geometry" />
        </mxCell>
        <mxCell id="FI4Dv5eyBoiZmgYLNW9x-2" value="" style="shape=tableRow;horizontal=0;startSize=0;swimlaneHead=0;swimlaneBody=0;fillColor=none;collapsible=0;dropTarget=0;points=[[0,0.5],[1,0.5]];portConstraint=eastwest;top=0;left=0;right=0;bottom=1;" parent="FI4Dv5eyBoiZmgYLNW9x-1" vertex="1">
          <mxGeometry y="30" width="180" height="30" as="geometry" />
        </mxCell>
        <mxCell id="FI4Dv5eyBoiZmgYLNW9x-3" value="PK" style="shape=partialRectangle;connectable=0;fillColor=none;top=0;left=0;bottom=0;right=0;fontStyle=1;overflow=hidden;whiteSpace=wrap;html=1;" parent="FI4Dv5eyBoiZmgYLNW9x-2" vertex="1">
          <mxGeometry width="30" height="30" as="geometry">
            <mxRectangle width="30" height="30" as="alternateBounds" />
          </mxGeometry>
        </mxCell>
        <mxCell id="FI4Dv5eyBoiZmgYLNW9x-4" value="player_id" style="shape=partialRectangle;connectable=0;fillColor=none;top=0;left=0;bottom=0;right=0;align=left;spacingLeft=6;fontStyle=5;overflow=hidden;whiteSpace=wrap;html=1;" parent="FI4Dv5eyBoiZmgYLNW9x-2" vertex="1">
          <mxGeometry x="30" width="150" height="30" as="geometry">
            <mxRectangle width="150" height="30" as="alternateBounds" />
          </mxGeometry>
        </mxCell>
        <mxCell id="FI4Dv5eyBoiZmgYLNW9x-5" value="" style="shape=tableRow;horizontal=0;startSize=0;swimlaneHead=0;swimlaneBody=0;fillColor=none;collapsible=0;dropTarget=0;points=[[0,0.5],[1,0.5]];portConstraint=eastwest;top=0;left=0;right=0;bottom=0;" parent="FI4Dv5eyBoiZmgYLNW9x-1" vertex="1">
          <mxGeometry y="60" width="180" height="30" as="geometry" />
        </mxCell>
        <mxCell id="FI4Dv5eyBoiZmgYLNW9x-6" value="" style="shape=partialRectangle;connectable=0;fillColor=none;top=0;left=0;bottom=0;right=0;editable=1;overflow=hidden;whiteSpace=wrap;html=1;" parent="FI4Dv5eyBoiZmgYLNW9x-5" vertex="1">
          <mxGeometry width="30" height="30" as="geometry">
            <mxRectangle width="30" height="30" as="alternateBounds" />
          </mxGeometry>
        </mxCell>
        <mxCell id="FI4Dv5eyBoiZmgYLNW9x-7" value="&lt;b&gt;first_name&lt;/b&gt;" style="shape=partialRectangle;connectable=0;fillColor=none;top=0;left=0;bottom=0;right=0;align=left;spacingLeft=6;overflow=hidden;whiteSpace=wrap;html=1;" parent="FI4Dv5eyBoiZmgYLNW9x-5" vertex="1">
          <mxGeometry x="30" width="150" height="30" as="geometry">
            <mxRectangle width="150" height="30" as="alternateBounds" />
          </mxGeometry>
        </mxCell>
        <mxCell id="FI4Dv5eyBoiZmgYLNW9x-8" value="" style="shape=tableRow;horizontal=0;startSize=0;swimlaneHead=0;swimlaneBody=0;fillColor=none;collapsible=0;dropTarget=0;points=[[0,0.5],[1,0.5]];portConstraint=eastwest;top=0;left=0;right=0;bottom=0;" parent="FI4Dv5eyBoiZmgYLNW9x-1" vertex="1">
          <mxGeometry y="90" width="180" height="30" as="geometry" />
        </mxCell>
        <mxCell id="FI4Dv5eyBoiZmgYLNW9x-9" value="" style="shape=partialRectangle;connectable=0;fillColor=none;top=0;left=0;bottom=0;right=0;editable=1;overflow=hidden;whiteSpace=wrap;html=1;" parent="FI4Dv5eyBoiZmgYLNW9x-8" vertex="1">
          <mxGeometry width="30" height="30" as="geometry">
            <mxRectangle width="30" height="30" as="alternateBounds" />
          </mxGeometry>
        </mxCell>
        <mxCell id="FI4Dv5eyBoiZmgYLNW9x-10" value="&lt;b&gt;last_name&lt;/b&gt;" style="shape=partialRectangle;connectable=0;fillColor=none;top=0;left=0;bottom=0;right=0;align=left;spacingLeft=6;overflow=hidden;whiteSpace=wrap;html=1;" parent="FI4Dv5eyBoiZmgYLNW9x-8" vertex="1">
          <mxGeometry x="30" width="150" height="30" as="geometry">
            <mxRectangle width="150" height="30" as="alternateBounds" />
          </mxGeometry>
        </mxCell>
        <mxCell id="FI4Dv5eyBoiZmgYLNW9x-14" value="" style="shape=tableRow;horizontal=0;startSize=0;swimlaneHead=0;swimlaneBody=0;fillColor=none;collapsible=0;dropTarget=0;points=[[0,0.5],[1,0.5]];portConstraint=eastwest;top=0;left=0;right=0;bottom=0;" parent="FI4Dv5eyBoiZmgYLNW9x-1" vertex="1">
          <mxGeometry y="120" width="180" height="30" as="geometry" />
        </mxCell>
        <mxCell id="FI4Dv5eyBoiZmgYLNW9x-15" value="" style="shape=partialRectangle;connectable=0;fillColor=none;top=0;left=0;bottom=0;right=0;editable=1;overflow=hidden;whiteSpace=wrap;html=1;" parent="FI4Dv5eyBoiZmgYLNW9x-14" vertex="1">
          <mxGeometry width="30" height="30" as="geometry">
            <mxRectangle width="30" height="30" as="alternateBounds" />
          </mxGeometry>
        </mxCell>
        <mxCell id="FI4Dv5eyBoiZmgYLNW9x-16" value="&lt;b&gt;birthDate&lt;/b&gt;" style="shape=partialRectangle;connectable=0;fillColor=none;top=0;left=0;bottom=0;right=0;align=left;spacingLeft=6;overflow=hidden;whiteSpace=wrap;html=1;" parent="FI4Dv5eyBoiZmgYLNW9x-14" vertex="1">
          <mxGeometry x="30" width="150" height="30" as="geometry">
            <mxRectangle width="150" height="30" as="alternateBounds" />
          </mxGeometry>
        </mxCell>
        <mxCell id="FI4Dv5eyBoiZmgYLNW9x-17" value="" style="shape=tableRow;horizontal=0;startSize=0;swimlaneHead=0;swimlaneBody=0;fillColor=none;collapsible=0;dropTarget=0;points=[[0,0.5],[1,0.5]];portConstraint=eastwest;top=0;left=0;right=0;bottom=0;" parent="FI4Dv5eyBoiZmgYLNW9x-1" vertex="1">
          <mxGeometry y="150" width="180" height="30" as="geometry" />
        </mxCell>
        <mxCell id="FI4Dv5eyBoiZmgYLNW9x-18" value="&lt;b&gt;UK&lt;/b&gt;" style="shape=partialRectangle;connectable=0;fillColor=none;top=0;left=0;bottom=0;right=0;editable=1;overflow=hidden;whiteSpace=wrap;html=1;" parent="FI4Dv5eyBoiZmgYLNW9x-17" vertex="1">
          <mxGeometry width="30" height="30" as="geometry">
            <mxRectangle width="30" height="30" as="alternateBounds" />
          </mxGeometry>
        </mxCell>
        <mxCell id="FI4Dv5eyBoiZmgYLNW9x-19" value="&lt;b&gt;reg_number&lt;/b&gt;" style="shape=partialRectangle;connectable=0;fillColor=none;top=0;left=0;bottom=0;right=0;align=left;spacingLeft=6;overflow=hidden;whiteSpace=wrap;html=1;" parent="FI4Dv5eyBoiZmgYLNW9x-17" vertex="1">
          <mxGeometry x="30" width="150" height="30" as="geometry">
            <mxRectangle width="150" height="30" as="alternateBounds" />
          </mxGeometry>
        </mxCell>
        <mxCell id="FI4Dv5eyBoiZmgYLNW9x-20" value="" style="shape=tableRow;horizontal=0;startSize=0;swimlaneHead=0;swimlaneBody=0;fillColor=none;collapsible=0;dropTarget=0;points=[[0,0.5],[1,0.5]];portConstraint=eastwest;top=0;left=0;right=0;bottom=0;" parent="FI4Dv5eyBoiZmgYLNW9x-1" vertex="1">
          <mxGeometry y="180" width="180" height="30" as="geometry" />
        </mxCell>
        <mxCell id="FI4Dv5eyBoiZmgYLNW9x-21" value="" style="shape=partialRectangle;connectable=0;fillColor=none;top=0;left=0;bottom=0;right=0;editable=1;overflow=hidden;whiteSpace=wrap;html=1;" parent="FI4Dv5eyBoiZmgYLNW9x-20" vertex="1">
          <mxGeometry width="30" height="30" as="geometry">
            <mxRectangle width="30" height="30" as="alternateBounds" />
          </mxGeometry>
        </mxCell>
        <mxCell id="FI4Dv5eyBoiZmgYLNW9x-22" value="&lt;b&gt;reg_date&lt;/b&gt;" style="shape=partialRectangle;connectable=0;fillColor=none;top=0;left=0;bottom=0;right=0;align=left;spacingLeft=6;overflow=hidden;whiteSpace=wrap;html=1;" parent="FI4Dv5eyBoiZmgYLNW9x-20" vertex="1">
          <mxGeometry x="30" width="150" height="30" as="geometry">
            <mxRectangle width="150" height="30" as="alternateBounds" />
          </mxGeometry>
        </mxCell>
        <mxCell id="FI4Dv5eyBoiZmgYLNW9x-23" value="" style="shape=tableRow;horizontal=0;startSize=0;swimlaneHead=0;swimlaneBody=0;fillColor=none;collapsible=0;dropTarget=0;points=[[0,0.5],[1,0.5]];portConstraint=eastwest;top=0;left=0;right=0;bottom=0;" parent="FI4Dv5eyBoiZmgYLNW9x-1" vertex="1">
          <mxGeometry y="210" width="180" height="30" as="geometry" />
        </mxCell>
        <mxCell id="FI4Dv5eyBoiZmgYLNW9x-24" value="" style="shape=partialRectangle;connectable=0;fillColor=none;top=0;left=0;bottom=0;right=0;editable=1;overflow=hidden;whiteSpace=wrap;html=1;" parent="FI4Dv5eyBoiZmgYLNW9x-23" vertex="1">
          <mxGeometry width="30" height="30" as="geometry">
            <mxRectangle width="30" height="30" as="alternateBounds" />
          </mxGeometry>
        </mxCell>
        <mxCell id="FI4Dv5eyBoiZmgYLNW9x-25" value="preferred_position" style="shape=partialRectangle;connectable=0;fillColor=none;top=0;left=0;bottom=0;right=0;align=left;spacingLeft=6;overflow=hidden;whiteSpace=wrap;html=1;" parent="FI4Dv5eyBoiZmgYLNW9x-23" vertex="1">
          <mxGeometry x="30" width="150" height="30" as="geometry">
            <mxRectangle width="150" height="30" as="alternateBounds" />
          </mxGeometry>
        </mxCell>
        <mxCell id="FI4Dv5eyBoiZmgYLNW9x-129" value="" style="shape=tableRow;horizontal=0;startSize=0;swimlaneHead=0;swimlaneBody=0;fillColor=none;collapsible=0;dropTarget=0;points=[[0,0.5],[1,0.5]];portConstraint=eastwest;top=0;left=0;right=0;bottom=0;" parent="FI4Dv5eyBoiZmgYLNW9x-1" vertex="1">
          <mxGeometry y="240" width="180" height="30" as="geometry" />
        </mxCell>
        <mxCell id="FI4Dv5eyBoiZmgYLNW9x-130" value="FK" style="shape=partialRectangle;connectable=0;fillColor=none;top=0;left=0;bottom=0;right=0;editable=1;overflow=hidden;whiteSpace=wrap;html=1;" parent="FI4Dv5eyBoiZmgYLNW9x-129" vertex="1">
          <mxGeometry width="30" height="30" as="geometry">
            <mxRectangle width="30" height="30" as="alternateBounds" />
          </mxGeometry>
        </mxCell>
        <mxCell id="FI4Dv5eyBoiZmgYLNW9x-131" value="team_id" style="shape=partialRectangle;connectable=0;fillColor=none;top=0;left=0;bottom=0;right=0;align=left;spacingLeft=6;overflow=hidden;whiteSpace=wrap;html=1;" parent="FI4Dv5eyBoiZmgYLNW9x-129" vertex="1">
          <mxGeometry x="30" width="150" height="30" as="geometry">
            <mxRectangle width="150" height="30" as="alternateBounds" />
          </mxGeometry>
        </mxCell>
        <mxCell id="FI4Dv5eyBoiZmgYLNW9x-39" value="Team" style="shape=table;startSize=30;container=1;collapsible=1;childLayout=tableLayout;fixedRows=1;rowLines=0;fontStyle=1;align=center;resizeLast=1;html=1;" parent="1" vertex="1">
          <mxGeometry x="70" y="390" width="180" height="180" as="geometry" />
        </mxCell>
        <mxCell id="FI4Dv5eyBoiZmgYLNW9x-110" value="" style="shape=tableRow;horizontal=0;startSize=0;swimlaneHead=0;swimlaneBody=0;fillColor=none;collapsible=0;dropTarget=0;points=[[0,0.5],[1,0.5]];portConstraint=eastwest;top=0;left=0;right=0;bottom=1;" parent="FI4Dv5eyBoiZmgYLNW9x-39" vertex="1">
          <mxGeometry y="30" width="180" height="30" as="geometry" />
        </mxCell>
        <mxCell id="FI4Dv5eyBoiZmgYLNW9x-111" value="PK" style="shape=partialRectangle;connectable=0;fillColor=none;top=0;left=0;bottom=0;right=0;fontStyle=1;overflow=hidden;whiteSpace=wrap;html=1;" parent="FI4Dv5eyBoiZmgYLNW9x-110" vertex="1">
          <mxGeometry width="30" height="30" as="geometry">
            <mxRectangle width="30" height="30" as="alternateBounds" />
          </mxGeometry>
        </mxCell>
        <mxCell id="FI4Dv5eyBoiZmgYLNW9x-112" value="team_id" style="shape=partialRectangle;connectable=0;fillColor=none;top=0;left=0;bottom=0;right=0;align=left;spacingLeft=6;fontStyle=5;overflow=hidden;whiteSpace=wrap;html=1;" parent="FI4Dv5eyBoiZmgYLNW9x-110" vertex="1">
          <mxGeometry x="30" width="150" height="30" as="geometry">
            <mxRectangle width="150" height="30" as="alternateBounds" />
          </mxGeometry>
        </mxCell>
        <mxCell id="FI4Dv5eyBoiZmgYLNW9x-43" value="" style="shape=tableRow;horizontal=0;startSize=0;swimlaneHead=0;swimlaneBody=0;fillColor=none;collapsible=0;dropTarget=0;points=[[0,0.5],[1,0.5]];portConstraint=eastwest;top=0;left=0;right=0;bottom=0;" parent="FI4Dv5eyBoiZmgYLNW9x-39" vertex="1">
          <mxGeometry y="60" width="180" height="30" as="geometry" />
        </mxCell>
        <mxCell id="FI4Dv5eyBoiZmgYLNW9x-44" value="" style="shape=partialRectangle;connectable=0;fillColor=none;top=0;left=0;bottom=0;right=0;editable=1;overflow=hidden;whiteSpace=wrap;html=1;" parent="FI4Dv5eyBoiZmgYLNW9x-43" vertex="1">
          <mxGeometry width="30" height="30" as="geometry">
            <mxRectangle width="30" height="30" as="alternateBounds" />
          </mxGeometry>
        </mxCell>
        <mxCell id="FI4Dv5eyBoiZmgYLNW9x-45" value="&lt;b&gt;team_Name&lt;/b&gt;" style="shape=partialRectangle;connectable=0;fillColor=none;top=0;left=0;bottom=0;right=0;align=left;spacingLeft=6;overflow=hidden;whiteSpace=wrap;html=1;" parent="FI4Dv5eyBoiZmgYLNW9x-43" vertex="1">
          <mxGeometry x="30" width="150" height="30" as="geometry">
            <mxRectangle width="150" height="30" as="alternateBounds" />
          </mxGeometry>
        </mxCell>
        <mxCell id="FI4Dv5eyBoiZmgYLNW9x-46" value="" style="shape=tableRow;horizontal=0;startSize=0;swimlaneHead=0;swimlaneBody=0;fillColor=none;collapsible=0;dropTarget=0;points=[[0,0.5],[1,0.5]];portConstraint=eastwest;top=0;left=0;right=0;bottom=0;" parent="FI4Dv5eyBoiZmgYLNW9x-39" vertex="1">
          <mxGeometry y="90" width="180" height="30" as="geometry" />
        </mxCell>
        <mxCell id="FI4Dv5eyBoiZmgYLNW9x-47" value="&lt;b&gt;UK&lt;/b&gt;" style="shape=partialRectangle;connectable=0;fillColor=none;top=0;left=0;bottom=0;right=0;editable=1;overflow=hidden;whiteSpace=wrap;html=1;" parent="FI4Dv5eyBoiZmgYLNW9x-46" vertex="1">
          <mxGeometry width="30" height="30" as="geometry">
            <mxRectangle width="30" height="30" as="alternateBounds" />
          </mxGeometry>
        </mxCell>
        <mxCell id="FI4Dv5eyBoiZmgYLNW9x-48" value="&lt;b&gt;team_number&lt;/b&gt;" style="shape=partialRectangle;connectable=0;fillColor=none;top=0;left=0;bottom=0;right=0;align=left;spacingLeft=6;overflow=hidden;whiteSpace=wrap;html=1;" parent="FI4Dv5eyBoiZmgYLNW9x-46" vertex="1">
          <mxGeometry x="30" width="150" height="30" as="geometry">
            <mxRectangle width="150" height="30" as="alternateBounds" />
          </mxGeometry>
        </mxCell>
        <mxCell id="FI4Dv5eyBoiZmgYLNW9x-49" value="" style="shape=tableRow;horizontal=0;startSize=0;swimlaneHead=0;swimlaneBody=0;fillColor=none;collapsible=0;dropTarget=0;points=[[0,0.5],[1,0.5]];portConstraint=eastwest;top=0;left=0;right=0;bottom=0;" parent="FI4Dv5eyBoiZmgYLNW9x-39" vertex="1">
          <mxGeometry y="120" width="180" height="30" as="geometry" />
        </mxCell>
        <mxCell id="FI4Dv5eyBoiZmgYLNW9x-50" value="FK" style="shape=partialRectangle;connectable=0;fillColor=none;top=0;left=0;bottom=0;right=0;editable=1;overflow=hidden;whiteSpace=wrap;html=1;" parent="FI4Dv5eyBoiZmgYLNW9x-49" vertex="1">
          <mxGeometry width="30" height="30" as="geometry">
            <mxRectangle width="30" height="30" as="alternateBounds" />
          </mxGeometry>
        </mxCell>
        <mxCell id="FI4Dv5eyBoiZmgYLNW9x-51" value="caption_id" style="shape=partialRectangle;connectable=0;fillColor=none;top=0;left=0;bottom=0;right=0;align=left;spacingLeft=6;overflow=hidden;whiteSpace=wrap;html=1;" parent="FI4Dv5eyBoiZmgYLNW9x-49" vertex="1">
          <mxGeometry x="30" width="150" height="30" as="geometry">
            <mxRectangle width="150" height="30" as="alternateBounds" />
          </mxGeometry>
        </mxCell>
        <mxCell id="FI4Dv5eyBoiZmgYLNW9x-126" value="" style="shape=tableRow;horizontal=0;startSize=0;swimlaneHead=0;swimlaneBody=0;fillColor=none;collapsible=0;dropTarget=0;points=[[0,0.5],[1,0.5]];portConstraint=eastwest;top=0;left=0;right=0;bottom=0;" parent="FI4Dv5eyBoiZmgYLNW9x-39" vertex="1">
          <mxGeometry y="150" width="180" height="30" as="geometry" />
        </mxCell>
        <mxCell id="FI4Dv5eyBoiZmgYLNW9x-127" value="" style="shape=partialRectangle;connectable=0;fillColor=none;top=0;left=0;bottom=0;right=0;editable=1;overflow=hidden;whiteSpace=wrap;html=1;" parent="FI4Dv5eyBoiZmgYLNW9x-126" vertex="1">
          <mxGeometry width="30" height="30" as="geometry">
            <mxRectangle width="30" height="30" as="alternateBounds" />
          </mxGeometry>
        </mxCell>
        <mxCell id="FI4Dv5eyBoiZmgYLNW9x-128" value="" style="shape=partialRectangle;connectable=0;fillColor=none;top=0;left=0;bottom=0;right=0;align=left;spacingLeft=6;overflow=hidden;whiteSpace=wrap;html=1;" parent="FI4Dv5eyBoiZmgYLNW9x-126" vertex="1">
          <mxGeometry x="30" width="150" height="30" as="geometry">
            <mxRectangle width="150" height="30" as="alternateBounds" />
          </mxGeometry>
        </mxCell>
        <mxCell id="FI4Dv5eyBoiZmgYLNW9x-52" value="sponsor" style="shape=table;startSize=30;container=1;collapsible=1;childLayout=tableLayout;fixedRows=1;rowLines=0;fontStyle=1;align=center;resizeLast=1;html=1;" parent="1" vertex="1">
          <mxGeometry x="650" y="290" width="180" height="150" as="geometry" />
        </mxCell>
        <mxCell id="FI4Dv5eyBoiZmgYLNW9x-123" value="" style="shape=tableRow;horizontal=0;startSize=0;swimlaneHead=0;swimlaneBody=0;fillColor=none;collapsible=0;dropTarget=0;points=[[0,0.5],[1,0.5]];portConstraint=eastwest;top=0;left=0;right=0;bottom=1;" parent="FI4Dv5eyBoiZmgYLNW9x-52" vertex="1">
          <mxGeometry y="30" width="180" height="30" as="geometry" />
        </mxCell>
        <mxCell id="FI4Dv5eyBoiZmgYLNW9x-124" value="PK" style="shape=partialRectangle;connectable=0;fillColor=none;top=0;left=0;bottom=0;right=0;fontStyle=1;overflow=hidden;whiteSpace=wrap;html=1;" parent="FI4Dv5eyBoiZmgYLNW9x-123" vertex="1">
          <mxGeometry width="30" height="30" as="geometry">
            <mxRectangle width="30" height="30" as="alternateBounds" />
          </mxGeometry>
        </mxCell>
        <mxCell id="FI4Dv5eyBoiZmgYLNW9x-125" value="sponsor_id" style="shape=partialRectangle;connectable=0;fillColor=none;top=0;left=0;bottom=0;right=0;align=left;spacingLeft=6;fontStyle=5;overflow=hidden;whiteSpace=wrap;html=1;" parent="FI4Dv5eyBoiZmgYLNW9x-123" vertex="1">
          <mxGeometry x="30" width="150" height="30" as="geometry">
            <mxRectangle width="150" height="30" as="alternateBounds" />
          </mxGeometry>
        </mxCell>
        <mxCell id="FI4Dv5eyBoiZmgYLNW9x-56" value="" style="shape=tableRow;horizontal=0;startSize=0;swimlaneHead=0;swimlaneBody=0;fillColor=none;collapsible=0;dropTarget=0;points=[[0,0.5],[1,0.5]];portConstraint=eastwest;top=0;left=0;right=0;bottom=0;" parent="FI4Dv5eyBoiZmgYLNW9x-52" vertex="1">
          <mxGeometry y="60" width="180" height="30" as="geometry" />
        </mxCell>
        <mxCell id="FI4Dv5eyBoiZmgYLNW9x-57" value="" style="shape=partialRectangle;connectable=0;fillColor=none;top=0;left=0;bottom=0;right=0;editable=1;overflow=hidden;whiteSpace=wrap;html=1;" parent="FI4Dv5eyBoiZmgYLNW9x-56" vertex="1">
          <mxGeometry width="30" height="30" as="geometry">
            <mxRectangle width="30" height="30" as="alternateBounds" />
          </mxGeometry>
        </mxCell>
        <mxCell id="FI4Dv5eyBoiZmgYLNW9x-58" value="&lt;b&gt;sponsor_name&lt;/b&gt;" style="shape=partialRectangle;connectable=0;fillColor=none;top=0;left=0;bottom=0;right=0;align=left;spacingLeft=6;overflow=hidden;whiteSpace=wrap;html=1;" parent="FI4Dv5eyBoiZmgYLNW9x-56" vertex="1">
          <mxGeometry x="30" width="150" height="30" as="geometry">
            <mxRectangle width="150" height="30" as="alternateBounds" />
          </mxGeometry>
        </mxCell>
        <mxCell id="FI4Dv5eyBoiZmgYLNW9x-59" value="" style="shape=tableRow;horizontal=0;startSize=0;swimlaneHead=0;swimlaneBody=0;fillColor=none;collapsible=0;dropTarget=0;points=[[0,0.5],[1,0.5]];portConstraint=eastwest;top=0;left=0;right=0;bottom=0;" parent="FI4Dv5eyBoiZmgYLNW9x-52" vertex="1">
          <mxGeometry y="90" width="180" height="30" as="geometry" />
        </mxCell>
        <mxCell id="FI4Dv5eyBoiZmgYLNW9x-60" value="" style="shape=partialRectangle;connectable=0;fillColor=none;top=0;left=0;bottom=0;right=0;editable=1;overflow=hidden;whiteSpace=wrap;html=1;" parent="FI4Dv5eyBoiZmgYLNW9x-59" vertex="1">
          <mxGeometry width="30" height="30" as="geometry">
            <mxRectangle width="30" height="30" as="alternateBounds" />
          </mxGeometry>
        </mxCell>
        <mxCell id="FI4Dv5eyBoiZmgYLNW9x-61" value="&lt;b&gt;contact_person&lt;/b&gt;" style="shape=partialRectangle;connectable=0;fillColor=none;top=0;left=0;bottom=0;right=0;align=left;spacingLeft=6;overflow=hidden;whiteSpace=wrap;html=1;" parent="FI4Dv5eyBoiZmgYLNW9x-59" vertex="1">
          <mxGeometry x="30" width="150" height="30" as="geometry">
            <mxRectangle width="150" height="30" as="alternateBounds" />
          </mxGeometry>
        </mxCell>
        <mxCell id="FI4Dv5eyBoiZmgYLNW9x-116" value="" style="shape=tableRow;horizontal=0;startSize=0;swimlaneHead=0;swimlaneBody=0;fillColor=none;collapsible=0;dropTarget=0;points=[[0,0.5],[1,0.5]];portConstraint=eastwest;top=0;left=0;right=0;bottom=0;" parent="FI4Dv5eyBoiZmgYLNW9x-52" vertex="1">
          <mxGeometry y="120" width="180" height="30" as="geometry" />
        </mxCell>
        <mxCell id="FI4Dv5eyBoiZmgYLNW9x-117" value="FK" style="shape=partialRectangle;connectable=0;fillColor=none;top=0;left=0;bottom=0;right=0;editable=1;overflow=hidden;whiteSpace=wrap;html=1;" parent="FI4Dv5eyBoiZmgYLNW9x-116" vertex="1">
          <mxGeometry width="30" height="30" as="geometry">
            <mxRectangle width="30" height="30" as="alternateBounds" />
          </mxGeometry>
        </mxCell>
        <mxCell id="FI4Dv5eyBoiZmgYLNW9x-118" value="team_id" style="shape=partialRectangle;connectable=0;fillColor=none;top=0;left=0;bottom=0;right=0;align=left;spacingLeft=6;overflow=hidden;whiteSpace=wrap;html=1;" parent="FI4Dv5eyBoiZmgYLNW9x-116" vertex="1">
          <mxGeometry x="30" width="150" height="30" as="geometry">
            <mxRectangle width="150" height="30" as="alternateBounds" />
          </mxGeometry>
        </mxCell>
        <mxCell id="FI4Dv5eyBoiZmgYLNW9x-108" style="edgeStyle=orthogonalEdgeStyle;rounded=0;orthogonalLoop=1;jettySize=auto;html=1;endArrow=ERmany;endFill=0;startArrow=ERmany;startFill=0;dashed=1;strokeWidth=2;" parent="1" source="FI4Dv5eyBoiZmgYLNW9x-66" target="FI4Dv5eyBoiZmgYLNW9x-2" edge="1">
          <mxGeometry relative="1" as="geometry" />
        </mxCell>
        <mxCell id="FI4Dv5eyBoiZmgYLNW9x-135" value="&lt;b&gt;played by&lt;br&gt;play&lt;/b&gt;" style="edgeLabel;html=1;align=center;verticalAlign=middle;resizable=0;points=[];" parent="FI4Dv5eyBoiZmgYLNW9x-108" connectable="0" vertex="1">
          <mxGeometry x="-0.0808" relative="1" as="geometry">
            <mxPoint x="-1" as="offset" />
          </mxGeometry>
        </mxCell>
        <mxCell id="FI4Dv5eyBoiZmgYLNW9x-65" value="Position" style="shape=table;startSize=30;container=1;collapsible=1;childLayout=tableLayout;fixedRows=1;rowLines=0;fontStyle=1;align=center;resizeLast=1;html=1;" parent="1" vertex="1">
          <mxGeometry x="10" y="80" width="180" height="90" as="geometry" />
        </mxCell>
        <mxCell id="FI4Dv5eyBoiZmgYLNW9x-66" value="" style="shape=tableRow;horizontal=0;startSize=0;swimlaneHead=0;swimlaneBody=0;fillColor=none;collapsible=0;dropTarget=0;points=[[0,0.5],[1,0.5]];portConstraint=eastwest;top=0;left=0;right=0;bottom=1;" parent="FI4Dv5eyBoiZmgYLNW9x-65" vertex="1">
          <mxGeometry y="30" width="180" height="30" as="geometry" />
        </mxCell>
        <mxCell id="FI4Dv5eyBoiZmgYLNW9x-67" value="PK" style="shape=partialRectangle;connectable=0;fillColor=none;top=0;left=0;bottom=0;right=0;fontStyle=1;overflow=hidden;whiteSpace=wrap;html=1;" parent="FI4Dv5eyBoiZmgYLNW9x-66" vertex="1">
          <mxGeometry width="30" height="30" as="geometry">
            <mxRectangle width="30" height="30" as="alternateBounds" />
          </mxGeometry>
        </mxCell>
        <mxCell id="FI4Dv5eyBoiZmgYLNW9x-68" value="position_id" style="shape=partialRectangle;connectable=0;fillColor=none;top=0;left=0;bottom=0;right=0;align=left;spacingLeft=6;fontStyle=5;overflow=hidden;whiteSpace=wrap;html=1;" parent="FI4Dv5eyBoiZmgYLNW9x-66" vertex="1">
          <mxGeometry x="30" width="150" height="30" as="geometry">
            <mxRectangle width="150" height="30" as="alternateBounds" />
          </mxGeometry>
        </mxCell>
        <mxCell id="FI4Dv5eyBoiZmgYLNW9x-69" value="" style="shape=tableRow;horizontal=0;startSize=0;swimlaneHead=0;swimlaneBody=0;fillColor=none;collapsible=0;dropTarget=0;points=[[0,0.5],[1,0.5]];portConstraint=eastwest;top=0;left=0;right=0;bottom=0;" parent="FI4Dv5eyBoiZmgYLNW9x-65" vertex="1">
          <mxGeometry y="60" width="180" height="30" as="geometry" />
        </mxCell>
        <mxCell id="FI4Dv5eyBoiZmgYLNW9x-70" value="" style="shape=partialRectangle;connectable=0;fillColor=none;top=0;left=0;bottom=0;right=0;editable=1;overflow=hidden;whiteSpace=wrap;html=1;" parent="FI4Dv5eyBoiZmgYLNW9x-69" vertex="1">
          <mxGeometry width="30" height="30" as="geometry">
            <mxRectangle width="30" height="30" as="alternateBounds" />
          </mxGeometry>
        </mxCell>
        <mxCell id="FI4Dv5eyBoiZmgYLNW9x-71" value="&lt;b&gt;position_name&lt;/b&gt;" style="shape=partialRectangle;connectable=0;fillColor=none;top=0;left=0;bottom=0;right=0;align=left;spacingLeft=6;overflow=hidden;whiteSpace=wrap;html=1;" parent="FI4Dv5eyBoiZmgYLNW9x-69" vertex="1">
          <mxGeometry x="30" width="150" height="30" as="geometry">
            <mxRectangle width="150" height="30" as="alternateBounds" />
          </mxGeometry>
        </mxCell>
        <mxCell id="FI4Dv5eyBoiZmgYLNW9x-120" style="edgeStyle=orthogonalEdgeStyle;rounded=0;orthogonalLoop=1;jettySize=auto;html=1;entryX=0;entryY=0.5;entryDx=0;entryDy=0;endArrow=ERmany;endFill=0;startArrow=ERmany;startFill=0;dashed=1;strokeWidth=2;" parent="1" source="FI4Dv5eyBoiZmgYLNW9x-78" target="FI4Dv5eyBoiZmgYLNW9x-43" edge="1">
          <mxGeometry relative="1" as="geometry" />
        </mxCell>
        <mxCell id="FI4Dv5eyBoiZmgYLNW9x-141" value="&lt;b&gt;have&lt;br&gt;assigned to&lt;br&gt;&lt;/b&gt;" style="edgeLabel;html=1;align=center;verticalAlign=middle;resizable=0;points=[];" parent="FI4Dv5eyBoiZmgYLNW9x-120" connectable="0" vertex="1">
          <mxGeometry x="-0.544" y="1" relative="1" as="geometry">
            <mxPoint as="offset" />
          </mxGeometry>
        </mxCell>
        <mxCell id="FI4Dv5eyBoiZmgYLNW9x-78" value="Coach" style="shape=table;startSize=30;container=1;collapsible=1;childLayout=tableLayout;fixedRows=1;rowLines=0;fontStyle=1;align=center;resizeLast=1;html=1;" parent="1" vertex="1">
          <mxGeometry x="40" y="730" width="200" height="180" as="geometry" />
        </mxCell>
        <mxCell id="FI4Dv5eyBoiZmgYLNW9x-79" value="" style="shape=tableRow;horizontal=0;startSize=0;swimlaneHead=0;swimlaneBody=0;fillColor=none;collapsible=0;dropTarget=0;points=[[0,0.5],[1,0.5]];portConstraint=eastwest;top=0;left=0;right=0;bottom=1;" parent="FI4Dv5eyBoiZmgYLNW9x-78" vertex="1">
          <mxGeometry y="30" width="200" height="30" as="geometry" />
        </mxCell>
        <mxCell id="FI4Dv5eyBoiZmgYLNW9x-80" value="PK" style="shape=partialRectangle;connectable=0;fillColor=none;top=0;left=0;bottom=0;right=0;fontStyle=1;overflow=hidden;whiteSpace=wrap;html=1;" parent="FI4Dv5eyBoiZmgYLNW9x-79" vertex="1">
          <mxGeometry width="30" height="30" as="geometry">
            <mxRectangle width="30" height="30" as="alternateBounds" />
          </mxGeometry>
        </mxCell>
        <mxCell id="FI4Dv5eyBoiZmgYLNW9x-81" value="coach_id" style="shape=partialRectangle;connectable=0;fillColor=none;top=0;left=0;bottom=0;right=0;align=left;spacingLeft=6;fontStyle=5;overflow=hidden;whiteSpace=wrap;html=1;" parent="FI4Dv5eyBoiZmgYLNW9x-79" vertex="1">
          <mxGeometry x="30" width="170" height="30" as="geometry">
            <mxRectangle width="170" height="30" as="alternateBounds" />
          </mxGeometry>
        </mxCell>
        <mxCell id="FI4Dv5eyBoiZmgYLNW9x-82" value="" style="shape=tableRow;horizontal=0;startSize=0;swimlaneHead=0;swimlaneBody=0;fillColor=none;collapsible=0;dropTarget=0;points=[[0,0.5],[1,0.5]];portConstraint=eastwest;top=0;left=0;right=0;bottom=0;" parent="FI4Dv5eyBoiZmgYLNW9x-78" vertex="1">
          <mxGeometry y="60" width="200" height="30" as="geometry" />
        </mxCell>
        <mxCell id="FI4Dv5eyBoiZmgYLNW9x-83" value="" style="shape=partialRectangle;connectable=0;fillColor=none;top=0;left=0;bottom=0;right=0;editable=1;overflow=hidden;whiteSpace=wrap;html=1;" parent="FI4Dv5eyBoiZmgYLNW9x-82" vertex="1">
          <mxGeometry width="30" height="30" as="geometry">
            <mxRectangle width="30" height="30" as="alternateBounds" />
          </mxGeometry>
        </mxCell>
        <mxCell id="FI4Dv5eyBoiZmgYLNW9x-84" value="&lt;b&gt;first_name&lt;/b&gt;" style="shape=partialRectangle;connectable=0;fillColor=none;top=0;left=0;bottom=0;right=0;align=left;spacingLeft=6;overflow=hidden;whiteSpace=wrap;html=1;" parent="FI4Dv5eyBoiZmgYLNW9x-82" vertex="1">
          <mxGeometry x="30" width="170" height="30" as="geometry">
            <mxRectangle width="170" height="30" as="alternateBounds" />
          </mxGeometry>
        </mxCell>
        <mxCell id="FI4Dv5eyBoiZmgYLNW9x-85" value="" style="shape=tableRow;horizontal=0;startSize=0;swimlaneHead=0;swimlaneBody=0;fillColor=none;collapsible=0;dropTarget=0;points=[[0,0.5],[1,0.5]];portConstraint=eastwest;top=0;left=0;right=0;bottom=0;" parent="FI4Dv5eyBoiZmgYLNW9x-78" vertex="1">
          <mxGeometry y="90" width="200" height="30" as="geometry" />
        </mxCell>
        <mxCell id="FI4Dv5eyBoiZmgYLNW9x-86" value="" style="shape=partialRectangle;connectable=0;fillColor=none;top=0;left=0;bottom=0;right=0;editable=1;overflow=hidden;whiteSpace=wrap;html=1;" parent="FI4Dv5eyBoiZmgYLNW9x-85" vertex="1">
          <mxGeometry width="30" height="30" as="geometry">
            <mxRectangle width="30" height="30" as="alternateBounds" />
          </mxGeometry>
        </mxCell>
        <mxCell id="FI4Dv5eyBoiZmgYLNW9x-87" value="&lt;b&gt;last_name&lt;/b&gt;" style="shape=partialRectangle;connectable=0;fillColor=none;top=0;left=0;bottom=0;right=0;align=left;spacingLeft=6;overflow=hidden;whiteSpace=wrap;html=1;" parent="FI4Dv5eyBoiZmgYLNW9x-85" vertex="1">
          <mxGeometry x="30" width="170" height="30" as="geometry">
            <mxRectangle width="170" height="30" as="alternateBounds" />
          </mxGeometry>
        </mxCell>
        <mxCell id="FI4Dv5eyBoiZmgYLNW9x-88" value="" style="shape=tableRow;horizontal=0;startSize=0;swimlaneHead=0;swimlaneBody=0;fillColor=none;collapsible=0;dropTarget=0;points=[[0,0.5],[1,0.5]];portConstraint=eastwest;top=0;left=0;right=0;bottom=0;" parent="FI4Dv5eyBoiZmgYLNW9x-78" vertex="1">
          <mxGeometry y="120" width="200" height="30" as="geometry" />
        </mxCell>
        <mxCell id="FI4Dv5eyBoiZmgYLNW9x-89" value="" style="shape=partialRectangle;connectable=0;fillColor=none;top=0;left=0;bottom=0;right=0;editable=1;overflow=hidden;whiteSpace=wrap;html=1;" parent="FI4Dv5eyBoiZmgYLNW9x-88" vertex="1">
          <mxGeometry width="30" height="30" as="geometry">
            <mxRectangle width="30" height="30" as="alternateBounds" />
          </mxGeometry>
        </mxCell>
        <mxCell id="FI4Dv5eyBoiZmgYLNW9x-90" value="years_coaching" style="shape=partialRectangle;connectable=0;fillColor=none;top=0;left=0;bottom=0;right=0;align=left;spacingLeft=6;overflow=hidden;whiteSpace=wrap;html=1;" parent="FI4Dv5eyBoiZmgYLNW9x-88" vertex="1">
          <mxGeometry x="30" width="170" height="30" as="geometry">
            <mxRectangle width="170" height="30" as="alternateBounds" />
          </mxGeometry>
        </mxCell>
        <mxCell id="FI4Dv5eyBoiZmgYLNW9x-91" value="" style="shape=tableRow;horizontal=0;startSize=0;swimlaneHead=0;swimlaneBody=0;fillColor=none;collapsible=0;dropTarget=0;points=[[0,0.5],[1,0.5]];portConstraint=eastwest;top=0;left=0;right=0;bottom=0;" parent="FI4Dv5eyBoiZmgYLNW9x-78" vertex="1">
          <mxGeometry y="150" width="200" height="30" as="geometry" />
        </mxCell>
        <mxCell id="FI4Dv5eyBoiZmgYLNW9x-92" value="&lt;b&gt;UK&lt;/b&gt;" style="shape=partialRectangle;connectable=0;fillColor=none;top=0;left=0;bottom=0;right=0;editable=1;overflow=hidden;whiteSpace=wrap;html=1;" parent="FI4Dv5eyBoiZmgYLNW9x-91" vertex="1">
          <mxGeometry width="30" height="30" as="geometry">
            <mxRectangle width="30" height="30" as="alternateBounds" />
          </mxGeometry>
        </mxCell>
        <mxCell id="FI4Dv5eyBoiZmgYLNW9x-93" value="coaching_certificate_number" style="shape=partialRectangle;connectable=0;fillColor=none;top=0;left=0;bottom=0;right=0;align=left;spacingLeft=6;overflow=hidden;whiteSpace=wrap;html=1;" parent="FI4Dv5eyBoiZmgYLNW9x-91" vertex="1">
          <mxGeometry x="30" width="170" height="30" as="geometry">
            <mxRectangle width="170" height="30" as="alternateBounds" />
          </mxGeometry>
        </mxCell>
        <mxCell id="FI4Dv5eyBoiZmgYLNW9x-121" style="edgeStyle=orthogonalEdgeStyle;rounded=0;orthogonalLoop=1;jettySize=auto;html=1;entryX=1;entryY=0.5;entryDx=0;entryDy=0;endArrow=ERmany;endFill=0;startArrow=ERmany;startFill=0;dashed=1;strokeWidth=2;" parent="1" source="FI4Dv5eyBoiZmgYLNW9x-94" target="FI4Dv5eyBoiZmgYLNW9x-46" edge="1">
          <mxGeometry relative="1" as="geometry" />
        </mxCell>
        <mxCell id="FI4Dv5eyBoiZmgYLNW9x-140" value="&lt;b&gt;have&lt;br&gt;is assigned to&lt;/b&gt;" style="edgeLabel;html=1;align=center;verticalAlign=middle;resizable=0;points=[];" parent="FI4Dv5eyBoiZmgYLNW9x-121" connectable="0" vertex="1">
          <mxGeometry x="-0.6438" y="1" relative="1" as="geometry">
            <mxPoint y="1" as="offset" />
          </mxGeometry>
        </mxCell>
        <mxCell id="FI4Dv5eyBoiZmgYLNW9x-94" value="Color" style="shape=table;startSize=30;container=1;collapsible=1;childLayout=tableLayout;fixedRows=1;rowLines=0;fontStyle=1;align=center;resizeLast=1;html=1;" parent="1" vertex="1">
          <mxGeometry x="540" y="640" width="180" height="90" as="geometry" />
        </mxCell>
        <mxCell id="FI4Dv5eyBoiZmgYLNW9x-95" value="" style="shape=tableRow;horizontal=0;startSize=0;swimlaneHead=0;swimlaneBody=0;fillColor=none;collapsible=0;dropTarget=0;points=[[0,0.5],[1,0.5]];portConstraint=eastwest;top=0;left=0;right=0;bottom=1;" parent="FI4Dv5eyBoiZmgYLNW9x-94" vertex="1">
          <mxGeometry y="30" width="180" height="30" as="geometry" />
        </mxCell>
        <mxCell id="FI4Dv5eyBoiZmgYLNW9x-96" value="PK" style="shape=partialRectangle;connectable=0;fillColor=none;top=0;left=0;bottom=0;right=0;fontStyle=1;overflow=hidden;whiteSpace=wrap;html=1;" parent="FI4Dv5eyBoiZmgYLNW9x-95" vertex="1">
          <mxGeometry width="30" height="30" as="geometry">
            <mxRectangle width="30" height="30" as="alternateBounds" />
          </mxGeometry>
        </mxCell>
        <mxCell id="FI4Dv5eyBoiZmgYLNW9x-97" value="color_id" style="shape=partialRectangle;connectable=0;fillColor=none;top=0;left=0;bottom=0;right=0;align=left;spacingLeft=6;fontStyle=5;overflow=hidden;whiteSpace=wrap;html=1;" parent="FI4Dv5eyBoiZmgYLNW9x-95" vertex="1">
          <mxGeometry x="30" width="150" height="30" as="geometry">
            <mxRectangle width="150" height="30" as="alternateBounds" />
          </mxGeometry>
        </mxCell>
        <mxCell id="FI4Dv5eyBoiZmgYLNW9x-98" value="" style="shape=tableRow;horizontal=0;startSize=0;swimlaneHead=0;swimlaneBody=0;fillColor=none;collapsible=0;dropTarget=0;points=[[0,0.5],[1,0.5]];portConstraint=eastwest;top=0;left=0;right=0;bottom=0;" parent="FI4Dv5eyBoiZmgYLNW9x-94" vertex="1">
          <mxGeometry y="60" width="180" height="30" as="geometry" />
        </mxCell>
        <mxCell id="FI4Dv5eyBoiZmgYLNW9x-99" value="" style="shape=partialRectangle;connectable=0;fillColor=none;top=0;left=0;bottom=0;right=0;editable=1;overflow=hidden;whiteSpace=wrap;html=1;" parent="FI4Dv5eyBoiZmgYLNW9x-98" vertex="1">
          <mxGeometry width="30" height="30" as="geometry">
            <mxRectangle width="30" height="30" as="alternateBounds" />
          </mxGeometry>
        </mxCell>
        <mxCell id="FI4Dv5eyBoiZmgYLNW9x-100" value="&lt;b&gt;color_name&lt;/b&gt;" style="shape=partialRectangle;connectable=0;fillColor=none;top=0;left=0;bottom=0;right=0;align=left;spacingLeft=6;overflow=hidden;whiteSpace=wrap;html=1;" parent="FI4Dv5eyBoiZmgYLNW9x-98" vertex="1">
          <mxGeometry x="30" width="150" height="30" as="geometry">
            <mxRectangle width="150" height="30" as="alternateBounds" />
          </mxGeometry>
        </mxCell>
        <mxCell id="FI4Dv5eyBoiZmgYLNW9x-114" style="edgeStyle=orthogonalEdgeStyle;rounded=0;orthogonalLoop=1;jettySize=auto;html=1;endArrow=ERmany;endFill=0;startArrow=ERone;startFill=0;dashed=1;strokeWidth=2;entryX=0;entryY=0.5;entryDx=0;entryDy=0;exitX=0;exitY=0.5;exitDx=0;exitDy=0;" parent="1" source="FI4Dv5eyBoiZmgYLNW9x-110" target="FI4Dv5eyBoiZmgYLNW9x-129" edge="1">
          <mxGeometry relative="1" as="geometry">
            <mxPoint x="330" y="510" as="sourcePoint" />
            <mxPoint x="430" y="460" as="targetPoint" />
          </mxGeometry>
        </mxCell>
        <mxCell id="FI4Dv5eyBoiZmgYLNW9x-137" value="&lt;b&gt;plays&amp;nbsp;&lt;br&gt;have&lt;/b&gt;" style="edgeLabel;html=1;align=center;verticalAlign=middle;resizable=0;points=[];" parent="FI4Dv5eyBoiZmgYLNW9x-114" connectable="0" vertex="1">
          <mxGeometry x="0.3063" relative="1" as="geometry">
            <mxPoint x="1" as="offset" />
          </mxGeometry>
        </mxCell>
        <mxCell id="FI4Dv5eyBoiZmgYLNW9x-115" style="edgeStyle=orthogonalEdgeStyle;rounded=0;orthogonalLoop=1;jettySize=auto;html=1;exitX=1;exitY=0.5;exitDx=0;exitDy=0;endArrow=ERmany;endFill=0;startArrow=ERone;startFill=0;dashed=1;strokeWidth=2;" parent="1" source="FI4Dv5eyBoiZmgYLNW9x-110" target="FI4Dv5eyBoiZmgYLNW9x-116" edge="1">
          <mxGeometry relative="1" as="geometry" />
        </mxCell>
        <mxCell id="FI4Dv5eyBoiZmgYLNW9x-139" value="&lt;b&gt;have&lt;br&gt;support&lt;/b&gt;" style="edgeLabel;html=1;align=center;verticalAlign=middle;resizable=0;points=[];" parent="FI4Dv5eyBoiZmgYLNW9x-115" connectable="0" vertex="1">
          <mxGeometry x="0.4933" y="2" relative="1" as="geometry">
            <mxPoint y="1" as="offset" />
          </mxGeometry>
        </mxCell>
        <mxCell id="FI4Dv5eyBoiZmgYLNW9x-122" style="edgeStyle=orthogonalEdgeStyle;rounded=0;orthogonalLoop=1;jettySize=auto;html=1;entryX=1.003;entryY=0.944;entryDx=0;entryDy=0;entryPerimeter=0;endArrow=ERone;endFill=0;startArrow=ERone;startFill=0;dashed=1;strokeWidth=2;" parent="1" source="FI4Dv5eyBoiZmgYLNW9x-49" target="FI4Dv5eyBoiZmgYLNW9x-2" edge="1">
          <mxGeometry relative="1" as="geometry" />
        </mxCell>
        <mxCell id="FI4Dv5eyBoiZmgYLNW9x-138" value="&lt;b&gt;is&lt;br&gt;have&lt;/b&gt;" style="edgeLabel;html=1;align=center;verticalAlign=middle;resizable=0;points=[];" parent="FI4Dv5eyBoiZmgYLNW9x-122" connectable="0" vertex="1">
          <mxGeometry x="0.1689" y="-1" relative="1" as="geometry">
            <mxPoint as="offset" />
          </mxGeometry>
        </mxCell>
        <mxCell id="FI4Dv5eyBoiZmgYLNW9x-143" value="Guardians" style="shape=table;startSize=30;container=1;collapsible=1;childLayout=tableLayout;fixedRows=1;rowLines=0;fontStyle=1;align=center;resizeLast=1;html=1;" parent="1" vertex="1">
          <mxGeometry x="640" y="90" width="180" height="150" as="geometry" />
        </mxCell>
        <mxCell id="FI4Dv5eyBoiZmgYLNW9x-157" value="" style="shape=tableRow;horizontal=0;startSize=0;swimlaneHead=0;swimlaneBody=0;fillColor=none;collapsible=0;dropTarget=0;points=[[0,0.5],[1,0.5]];portConstraint=eastwest;top=0;left=0;right=0;bottom=1;" parent="FI4Dv5eyBoiZmgYLNW9x-143" vertex="1">
          <mxGeometry y="30" width="180" height="30" as="geometry" />
        </mxCell>
        <mxCell id="FI4Dv5eyBoiZmgYLNW9x-158" value="PK" style="shape=partialRectangle;connectable=0;fillColor=none;top=0;left=0;bottom=0;right=0;fontStyle=1;overflow=hidden;whiteSpace=wrap;html=1;" parent="FI4Dv5eyBoiZmgYLNW9x-157" vertex="1">
          <mxGeometry width="30" height="30" as="geometry">
            <mxRectangle width="30" height="30" as="alternateBounds" />
          </mxGeometry>
        </mxCell>
        <mxCell id="FI4Dv5eyBoiZmgYLNW9x-159" value="guardian_id" style="shape=partialRectangle;connectable=0;fillColor=none;top=0;left=0;bottom=0;right=0;align=left;spacingLeft=6;fontStyle=5;overflow=hidden;whiteSpace=wrap;html=1;" parent="FI4Dv5eyBoiZmgYLNW9x-157" vertex="1">
          <mxGeometry x="30" width="150" height="30" as="geometry">
            <mxRectangle width="150" height="30" as="alternateBounds" />
          </mxGeometry>
        </mxCell>
        <mxCell id="FI4Dv5eyBoiZmgYLNW9x-144" value="" style="shape=tableRow;horizontal=0;startSize=0;swimlaneHead=0;swimlaneBody=0;fillColor=none;collapsible=0;dropTarget=0;points=[[0,0.5],[1,0.5]];portConstraint=eastwest;top=0;left=0;right=0;bottom=1;" parent="FI4Dv5eyBoiZmgYLNW9x-143" vertex="1">
          <mxGeometry y="60" width="180" height="30" as="geometry" />
        </mxCell>
        <mxCell id="FI4Dv5eyBoiZmgYLNW9x-145" value="PK" style="shape=partialRectangle;connectable=0;fillColor=none;top=0;left=0;bottom=0;right=0;fontStyle=1;overflow=hidden;whiteSpace=wrap;html=1;" parent="FI4Dv5eyBoiZmgYLNW9x-144" vertex="1">
          <mxGeometry width="30" height="30" as="geometry">
            <mxRectangle width="30" height="30" as="alternateBounds" />
          </mxGeometry>
        </mxCell>
        <mxCell id="FI4Dv5eyBoiZmgYLNW9x-146" value="guardian_id" style="shape=partialRectangle;connectable=0;fillColor=none;top=0;left=0;bottom=0;right=0;align=left;spacingLeft=6;fontStyle=5;overflow=hidden;whiteSpace=wrap;html=1;" parent="FI4Dv5eyBoiZmgYLNW9x-144" vertex="1">
          <mxGeometry x="30" width="150" height="30" as="geometry">
            <mxRectangle width="150" height="30" as="alternateBounds" />
          </mxGeometry>
        </mxCell>
        <mxCell id="FI4Dv5eyBoiZmgYLNW9x-147" value="" style="shape=tableRow;horizontal=0;startSize=0;swimlaneHead=0;swimlaneBody=0;fillColor=none;collapsible=0;dropTarget=0;points=[[0,0.5],[1,0.5]];portConstraint=eastwest;top=0;left=0;right=0;bottom=0;" parent="FI4Dv5eyBoiZmgYLNW9x-143" vertex="1">
          <mxGeometry y="90" width="180" height="30" as="geometry" />
        </mxCell>
        <mxCell id="FI4Dv5eyBoiZmgYLNW9x-148" value="" style="shape=partialRectangle;connectable=0;fillColor=none;top=0;left=0;bottom=0;right=0;editable=1;overflow=hidden;whiteSpace=wrap;html=1;" parent="FI4Dv5eyBoiZmgYLNW9x-147" vertex="1">
          <mxGeometry width="30" height="30" as="geometry">
            <mxRectangle width="30" height="30" as="alternateBounds" />
          </mxGeometry>
        </mxCell>
        <mxCell id="FI4Dv5eyBoiZmgYLNW9x-149" value="&lt;b&gt;first_name&lt;/b&gt;" style="shape=partialRectangle;connectable=0;fillColor=none;top=0;left=0;bottom=0;right=0;align=left;spacingLeft=6;overflow=hidden;whiteSpace=wrap;html=1;" parent="FI4Dv5eyBoiZmgYLNW9x-147" vertex="1">
          <mxGeometry x="30" width="150" height="30" as="geometry">
            <mxRectangle width="150" height="30" as="alternateBounds" />
          </mxGeometry>
        </mxCell>
        <mxCell id="FI4Dv5eyBoiZmgYLNW9x-150" value="" style="shape=tableRow;horizontal=0;startSize=0;swimlaneHead=0;swimlaneBody=0;fillColor=none;collapsible=0;dropTarget=0;points=[[0,0.5],[1,0.5]];portConstraint=eastwest;top=0;left=0;right=0;bottom=0;" parent="FI4Dv5eyBoiZmgYLNW9x-143" vertex="1">
          <mxGeometry y="120" width="180" height="30" as="geometry" />
        </mxCell>
        <mxCell id="FI4Dv5eyBoiZmgYLNW9x-151" value="" style="shape=partialRectangle;connectable=0;fillColor=none;top=0;left=0;bottom=0;right=0;editable=1;overflow=hidden;whiteSpace=wrap;html=1;" parent="FI4Dv5eyBoiZmgYLNW9x-150" vertex="1">
          <mxGeometry width="30" height="30" as="geometry">
            <mxRectangle width="30" height="30" as="alternateBounds" />
          </mxGeometry>
        </mxCell>
        <mxCell id="FI4Dv5eyBoiZmgYLNW9x-152" value="&lt;b&gt;last_name&lt;/b&gt;" style="shape=partialRectangle;connectable=0;fillColor=none;top=0;left=0;bottom=0;right=0;align=left;spacingLeft=6;overflow=hidden;whiteSpace=wrap;html=1;" parent="FI4Dv5eyBoiZmgYLNW9x-150" vertex="1">
          <mxGeometry x="30" width="150" height="30" as="geometry">
            <mxRectangle width="150" height="30" as="alternateBounds" />
          </mxGeometry>
        </mxCell>
        <mxCell id="FI4Dv5eyBoiZmgYLNW9x-156" value="&lt;br&gt;Each player &lt;u&gt;can&lt;/u&gt; &lt;font color=&quot;#00cc66&quot;&gt;play for&lt;/font&gt; &lt;font color=&quot;#0000cc&quot;&gt;one or more&lt;/font&gt; team.&lt;br&gt;Each team can &lt;font color=&quot;#00cc66&quot;&gt;have&lt;/font&gt; &lt;font color=&quot;#0000cc&quot;&gt;one or more than one&lt;/font&gt; player.&lt;br&gt;&lt;br&gt;Each player &lt;u&gt;can&lt;/u&gt; &lt;font color=&quot;#00cc66&quot;&gt;have&lt;/font&gt; &lt;font color=&quot;#0000cc&quot;&gt;one or more than one&lt;/font&gt; position&lt;br&gt;Each position &lt;u&gt;can&lt;/u&gt; &lt;font color=&quot;#00cc66&quot;&gt;have&lt;/font&gt; &lt;font color=&quot;#0000cc&quot;&gt;one or more than one&lt;/font&gt; player.&lt;br&gt;&lt;br&gt;Each player &lt;u&gt;can&lt;/u&gt; &lt;font color=&quot;#00cc66&quot;&gt;have&lt;/font&gt; &lt;font color=&quot;#0000cc&quot;&gt;one or more than one&lt;/font&gt; guardian. &lt;br&gt;Each guardian &lt;u&gt;is&lt;/u&gt; &lt;font color=&quot;#00cc66&quot;&gt;responsible for &lt;/font&gt;&lt;font color=&quot;#0000cc&quot;&gt;zero, one, or more than one &lt;/font&gt;player.&lt;br&gt;&lt;br&gt;Each team &lt;u&gt;can&lt;/u&gt; &lt;font color=&quot;#00cc66&quot;&gt;have&lt;/font&gt; one or more than one sponsor&lt;br&gt;Each sponsor &lt;u&gt;can&lt;/u&gt; &lt;font color=&quot;#00cc66&quot;&gt;support&lt;/font&gt; &lt;font color=&quot;#0000cc&quot;&gt;only one&lt;/font&gt; team.&lt;br&gt;&lt;br&gt;Each team &lt;u&gt;has&lt;/u&gt; &lt;font color=&quot;#0000cc&quot;&gt;one or more than one&lt;/font&gt; coach.&lt;br&gt;Each coach &lt;u&gt;is&lt;/u&gt; &lt;font color=&quot;#00cc66&quot;&gt;assigned to&lt;/font&gt; &lt;font color=&quot;#0000cc&quot;&gt;one or more than one&lt;/font&gt; team.&lt;br&gt;&lt;br&gt;Each team &lt;u&gt;can&lt;/u&gt; &lt;font color=&quot;#00cc66&quot;&gt;have&lt;/font&gt; &lt;font color=&quot;#0000cc&quot;&gt;one or more than more&lt;/font&gt; colors.&lt;br&gt;Each color &lt;u&gt;is&lt;/u&gt; &lt;font color=&quot;#00cc66&quot;&gt;assigned&lt;/font&gt; to &lt;font color=&quot;#0000cc&quot;&gt;one or more than one&lt;/font&gt; team." style="text;html=1;align=center;verticalAlign=middle;resizable=0;points=[];autosize=1;strokeColor=none;fillColor=none;" parent="1" vertex="1">
          <mxGeometry x="300" y="760" width="390" height="270" as="geometry" />
        </mxCell>
        <mxCell id="MaMwihF3GcDS8FBvhYnu-1" value="&lt;h1&gt;P03-07a&lt;/h1&gt;" style="text;html=1;strokeColor=none;fillColor=none;spacing=5;spacingTop=-20;whiteSpace=wrap;overflow=hidden;rounded=0;" vertex="1" parent="1">
          <mxGeometry x="330" y="30" width="120" height="50" as="geometry" />
        </mxCell>
      </root>
    </mxGraphModel>
  </diagram>
  <diagram id="TbKoXNM2lZCnDeRCAV6D" name="P03-07b">
    <mxGraphModel dx="987" dy="593" grid="1" gridSize="10" guides="1" tooltips="1" connect="1" arrows="1" fold="1" page="1" pageScale="1" pageWidth="850" pageHeight="1100" math="0" shadow="0">
      <root>
        <mxCell id="0" />
        <mxCell id="1" parent="0" />
        <mxCell id="PPHQvGL7VuhMwf0aUTS8-1" style="edgeStyle=orthogonalEdgeStyle;rounded=0;orthogonalLoop=1;jettySize=auto;html=1;endArrow=ERmany;endFill=0;startArrow=ERmandOne;startFill=0;strokeWidth=2;entryX=0;entryY=0.5;entryDx=0;entryDy=0;" parent="1" source="PPHQvGL7VuhMwf0aUTS8-4" target="PPHQvGL7VuhMwf0aUTS8-141" edge="1">
          <mxGeometry relative="1" as="geometry">
            <mxPoint x="640" y="175" as="targetPoint" />
          </mxGeometry>
        </mxCell>
        <mxCell id="PPHQvGL7VuhMwf0aUTS8-3" value="Player" style="shape=table;startSize=30;container=1;collapsible=1;childLayout=tableLayout;fixedRows=1;rowLines=0;fontStyle=1;align=center;resizeLast=1;html=1;" parent="1" vertex="1">
          <mxGeometry x="330" y="130" width="180" height="270" as="geometry" />
        </mxCell>
        <mxCell id="PPHQvGL7VuhMwf0aUTS8-4" value="" style="shape=tableRow;horizontal=0;startSize=0;swimlaneHead=0;swimlaneBody=0;fillColor=none;collapsible=0;dropTarget=0;points=[[0,0.5],[1,0.5]];portConstraint=eastwest;top=0;left=0;right=0;bottom=1;" parent="PPHQvGL7VuhMwf0aUTS8-3" vertex="1">
          <mxGeometry y="30" width="180" height="30" as="geometry" />
        </mxCell>
        <mxCell id="PPHQvGL7VuhMwf0aUTS8-5" value="PK" style="shape=partialRectangle;connectable=0;fillColor=none;top=0;left=0;bottom=0;right=0;fontStyle=1;overflow=hidden;whiteSpace=wrap;html=1;" parent="PPHQvGL7VuhMwf0aUTS8-4" vertex="1">
          <mxGeometry width="30" height="30" as="geometry">
            <mxRectangle width="30" height="30" as="alternateBounds" />
          </mxGeometry>
        </mxCell>
        <mxCell id="PPHQvGL7VuhMwf0aUTS8-6" value="player_id" style="shape=partialRectangle;connectable=0;fillColor=none;top=0;left=0;bottom=0;right=0;align=left;spacingLeft=6;fontStyle=5;overflow=hidden;whiteSpace=wrap;html=1;" parent="PPHQvGL7VuhMwf0aUTS8-4" vertex="1">
          <mxGeometry x="30" width="150" height="30" as="geometry">
            <mxRectangle width="150" height="30" as="alternateBounds" />
          </mxGeometry>
        </mxCell>
        <mxCell id="PPHQvGL7VuhMwf0aUTS8-7" value="" style="shape=tableRow;horizontal=0;startSize=0;swimlaneHead=0;swimlaneBody=0;fillColor=none;collapsible=0;dropTarget=0;points=[[0,0.5],[1,0.5]];portConstraint=eastwest;top=0;left=0;right=0;bottom=0;" parent="PPHQvGL7VuhMwf0aUTS8-3" vertex="1">
          <mxGeometry y="60" width="180" height="30" as="geometry" />
        </mxCell>
        <mxCell id="PPHQvGL7VuhMwf0aUTS8-8" value="" style="shape=partialRectangle;connectable=0;fillColor=none;top=0;left=0;bottom=0;right=0;editable=1;overflow=hidden;whiteSpace=wrap;html=1;" parent="PPHQvGL7VuhMwf0aUTS8-7" vertex="1">
          <mxGeometry width="30" height="30" as="geometry">
            <mxRectangle width="30" height="30" as="alternateBounds" />
          </mxGeometry>
        </mxCell>
        <mxCell id="PPHQvGL7VuhMwf0aUTS8-9" value="&lt;b&gt;first_name&lt;/b&gt;" style="shape=partialRectangle;connectable=0;fillColor=none;top=0;left=0;bottom=0;right=0;align=left;spacingLeft=6;overflow=hidden;whiteSpace=wrap;html=1;" parent="PPHQvGL7VuhMwf0aUTS8-7" vertex="1">
          <mxGeometry x="30" width="150" height="30" as="geometry">
            <mxRectangle width="150" height="30" as="alternateBounds" />
          </mxGeometry>
        </mxCell>
        <mxCell id="PPHQvGL7VuhMwf0aUTS8-10" value="" style="shape=tableRow;horizontal=0;startSize=0;swimlaneHead=0;swimlaneBody=0;fillColor=none;collapsible=0;dropTarget=0;points=[[0,0.5],[1,0.5]];portConstraint=eastwest;top=0;left=0;right=0;bottom=0;" parent="PPHQvGL7VuhMwf0aUTS8-3" vertex="1">
          <mxGeometry y="90" width="180" height="30" as="geometry" />
        </mxCell>
        <mxCell id="PPHQvGL7VuhMwf0aUTS8-11" value="" style="shape=partialRectangle;connectable=0;fillColor=none;top=0;left=0;bottom=0;right=0;editable=1;overflow=hidden;whiteSpace=wrap;html=1;" parent="PPHQvGL7VuhMwf0aUTS8-10" vertex="1">
          <mxGeometry width="30" height="30" as="geometry">
            <mxRectangle width="30" height="30" as="alternateBounds" />
          </mxGeometry>
        </mxCell>
        <mxCell id="PPHQvGL7VuhMwf0aUTS8-12" value="&lt;b&gt;last_name&lt;/b&gt;" style="shape=partialRectangle;connectable=0;fillColor=none;top=0;left=0;bottom=0;right=0;align=left;spacingLeft=6;overflow=hidden;whiteSpace=wrap;html=1;" parent="PPHQvGL7VuhMwf0aUTS8-10" vertex="1">
          <mxGeometry x="30" width="150" height="30" as="geometry">
            <mxRectangle width="150" height="30" as="alternateBounds" />
          </mxGeometry>
        </mxCell>
        <mxCell id="PPHQvGL7VuhMwf0aUTS8-13" value="" style="shape=tableRow;horizontal=0;startSize=0;swimlaneHead=0;swimlaneBody=0;fillColor=none;collapsible=0;dropTarget=0;points=[[0,0.5],[1,0.5]];portConstraint=eastwest;top=0;left=0;right=0;bottom=0;" parent="PPHQvGL7VuhMwf0aUTS8-3" vertex="1">
          <mxGeometry y="120" width="180" height="30" as="geometry" />
        </mxCell>
        <mxCell id="PPHQvGL7VuhMwf0aUTS8-14" value="" style="shape=partialRectangle;connectable=0;fillColor=none;top=0;left=0;bottom=0;right=0;editable=1;overflow=hidden;whiteSpace=wrap;html=1;" parent="PPHQvGL7VuhMwf0aUTS8-13" vertex="1">
          <mxGeometry width="30" height="30" as="geometry">
            <mxRectangle width="30" height="30" as="alternateBounds" />
          </mxGeometry>
        </mxCell>
        <mxCell id="PPHQvGL7VuhMwf0aUTS8-15" value="&lt;b&gt;birthDate&lt;/b&gt;" style="shape=partialRectangle;connectable=0;fillColor=none;top=0;left=0;bottom=0;right=0;align=left;spacingLeft=6;overflow=hidden;whiteSpace=wrap;html=1;" parent="PPHQvGL7VuhMwf0aUTS8-13" vertex="1">
          <mxGeometry x="30" width="150" height="30" as="geometry">
            <mxRectangle width="150" height="30" as="alternateBounds" />
          </mxGeometry>
        </mxCell>
        <mxCell id="PPHQvGL7VuhMwf0aUTS8-16" value="" style="shape=tableRow;horizontal=0;startSize=0;swimlaneHead=0;swimlaneBody=0;fillColor=none;collapsible=0;dropTarget=0;points=[[0,0.5],[1,0.5]];portConstraint=eastwest;top=0;left=0;right=0;bottom=0;" parent="PPHQvGL7VuhMwf0aUTS8-3" vertex="1">
          <mxGeometry y="150" width="180" height="30" as="geometry" />
        </mxCell>
        <mxCell id="PPHQvGL7VuhMwf0aUTS8-17" value="&lt;b&gt;UK&lt;/b&gt;" style="shape=partialRectangle;connectable=0;fillColor=none;top=0;left=0;bottom=0;right=0;editable=1;overflow=hidden;whiteSpace=wrap;html=1;" parent="PPHQvGL7VuhMwf0aUTS8-16" vertex="1">
          <mxGeometry width="30" height="30" as="geometry">
            <mxRectangle width="30" height="30" as="alternateBounds" />
          </mxGeometry>
        </mxCell>
        <mxCell id="PPHQvGL7VuhMwf0aUTS8-18" value="&lt;b&gt;reg_number&lt;/b&gt;" style="shape=partialRectangle;connectable=0;fillColor=none;top=0;left=0;bottom=0;right=0;align=left;spacingLeft=6;overflow=hidden;whiteSpace=wrap;html=1;" parent="PPHQvGL7VuhMwf0aUTS8-16" vertex="1">
          <mxGeometry x="30" width="150" height="30" as="geometry">
            <mxRectangle width="150" height="30" as="alternateBounds" />
          </mxGeometry>
        </mxCell>
        <mxCell id="PPHQvGL7VuhMwf0aUTS8-19" value="" style="shape=tableRow;horizontal=0;startSize=0;swimlaneHead=0;swimlaneBody=0;fillColor=none;collapsible=0;dropTarget=0;points=[[0,0.5],[1,0.5]];portConstraint=eastwest;top=0;left=0;right=0;bottom=0;" parent="PPHQvGL7VuhMwf0aUTS8-3" vertex="1">
          <mxGeometry y="180" width="180" height="30" as="geometry" />
        </mxCell>
        <mxCell id="PPHQvGL7VuhMwf0aUTS8-20" value="" style="shape=partialRectangle;connectable=0;fillColor=none;top=0;left=0;bottom=0;right=0;editable=1;overflow=hidden;whiteSpace=wrap;html=1;" parent="PPHQvGL7VuhMwf0aUTS8-19" vertex="1">
          <mxGeometry width="30" height="30" as="geometry">
            <mxRectangle width="30" height="30" as="alternateBounds" />
          </mxGeometry>
        </mxCell>
        <mxCell id="PPHQvGL7VuhMwf0aUTS8-21" value="&lt;b&gt;reg_date&lt;/b&gt;" style="shape=partialRectangle;connectable=0;fillColor=none;top=0;left=0;bottom=0;right=0;align=left;spacingLeft=6;overflow=hidden;whiteSpace=wrap;html=1;" parent="PPHQvGL7VuhMwf0aUTS8-19" vertex="1">
          <mxGeometry x="30" width="150" height="30" as="geometry">
            <mxRectangle width="150" height="30" as="alternateBounds" />
          </mxGeometry>
        </mxCell>
        <mxCell id="PPHQvGL7VuhMwf0aUTS8-22" value="" style="shape=tableRow;horizontal=0;startSize=0;swimlaneHead=0;swimlaneBody=0;fillColor=none;collapsible=0;dropTarget=0;points=[[0,0.5],[1,0.5]];portConstraint=eastwest;top=0;left=0;right=0;bottom=0;" parent="PPHQvGL7VuhMwf0aUTS8-3" vertex="1">
          <mxGeometry y="210" width="180" height="30" as="geometry" />
        </mxCell>
        <mxCell id="PPHQvGL7VuhMwf0aUTS8-23" value="" style="shape=partialRectangle;connectable=0;fillColor=none;top=0;left=0;bottom=0;right=0;editable=1;overflow=hidden;whiteSpace=wrap;html=1;" parent="PPHQvGL7VuhMwf0aUTS8-22" vertex="1">
          <mxGeometry width="30" height="30" as="geometry">
            <mxRectangle width="30" height="30" as="alternateBounds" />
          </mxGeometry>
        </mxCell>
        <mxCell id="PPHQvGL7VuhMwf0aUTS8-24" value="preferred_position" style="shape=partialRectangle;connectable=0;fillColor=none;top=0;left=0;bottom=0;right=0;align=left;spacingLeft=6;overflow=hidden;whiteSpace=wrap;html=1;" parent="PPHQvGL7VuhMwf0aUTS8-22" vertex="1">
          <mxGeometry x="30" width="150" height="30" as="geometry">
            <mxRectangle width="150" height="30" as="alternateBounds" />
          </mxGeometry>
        </mxCell>
        <mxCell id="PPHQvGL7VuhMwf0aUTS8-25" value="" style="shape=tableRow;horizontal=0;startSize=0;swimlaneHead=0;swimlaneBody=0;fillColor=none;collapsible=0;dropTarget=0;points=[[0,0.5],[1,0.5]];portConstraint=eastwest;top=0;left=0;right=0;bottom=0;" parent="PPHQvGL7VuhMwf0aUTS8-3" vertex="1">
          <mxGeometry y="240" width="180" height="30" as="geometry" />
        </mxCell>
        <mxCell id="PPHQvGL7VuhMwf0aUTS8-26" value="FK" style="shape=partialRectangle;connectable=0;fillColor=none;top=0;left=0;bottom=0;right=0;editable=1;overflow=hidden;whiteSpace=wrap;html=1;" parent="PPHQvGL7VuhMwf0aUTS8-25" vertex="1">
          <mxGeometry width="30" height="30" as="geometry">
            <mxRectangle width="30" height="30" as="alternateBounds" />
          </mxGeometry>
        </mxCell>
        <mxCell id="PPHQvGL7VuhMwf0aUTS8-27" value="team_id" style="shape=partialRectangle;connectable=0;fillColor=none;top=0;left=0;bottom=0;right=0;align=left;spacingLeft=6;overflow=hidden;whiteSpace=wrap;html=1;" parent="PPHQvGL7VuhMwf0aUTS8-25" vertex="1">
          <mxGeometry x="30" width="150" height="30" as="geometry">
            <mxRectangle width="150" height="30" as="alternateBounds" />
          </mxGeometry>
        </mxCell>
        <mxCell id="PPHQvGL7VuhMwf0aUTS8-28" value="Team" style="shape=table;startSize=30;container=1;collapsible=1;childLayout=tableLayout;fixedRows=1;rowLines=0;fontStyle=1;align=center;resizeLast=1;html=1;" parent="1" vertex="1">
          <mxGeometry x="60" y="450" width="180" height="180" as="geometry" />
        </mxCell>
        <mxCell id="PPHQvGL7VuhMwf0aUTS8-29" value="" style="shape=tableRow;horizontal=0;startSize=0;swimlaneHead=0;swimlaneBody=0;fillColor=none;collapsible=0;dropTarget=0;points=[[0,0.5],[1,0.5]];portConstraint=eastwest;top=0;left=0;right=0;bottom=1;" parent="PPHQvGL7VuhMwf0aUTS8-28" vertex="1">
          <mxGeometry y="30" width="180" height="30" as="geometry" />
        </mxCell>
        <mxCell id="PPHQvGL7VuhMwf0aUTS8-30" value="PK" style="shape=partialRectangle;connectable=0;fillColor=none;top=0;left=0;bottom=0;right=0;fontStyle=1;overflow=hidden;whiteSpace=wrap;html=1;" parent="PPHQvGL7VuhMwf0aUTS8-29" vertex="1">
          <mxGeometry width="30" height="30" as="geometry">
            <mxRectangle width="30" height="30" as="alternateBounds" />
          </mxGeometry>
        </mxCell>
        <mxCell id="PPHQvGL7VuhMwf0aUTS8-31" value="team_id" style="shape=partialRectangle;connectable=0;fillColor=none;top=0;left=0;bottom=0;right=0;align=left;spacingLeft=6;fontStyle=5;overflow=hidden;whiteSpace=wrap;html=1;" parent="PPHQvGL7VuhMwf0aUTS8-29" vertex="1">
          <mxGeometry x="30" width="150" height="30" as="geometry">
            <mxRectangle width="150" height="30" as="alternateBounds" />
          </mxGeometry>
        </mxCell>
        <mxCell id="PPHQvGL7VuhMwf0aUTS8-32" value="" style="shape=tableRow;horizontal=0;startSize=0;swimlaneHead=0;swimlaneBody=0;fillColor=none;collapsible=0;dropTarget=0;points=[[0,0.5],[1,0.5]];portConstraint=eastwest;top=0;left=0;right=0;bottom=0;" parent="PPHQvGL7VuhMwf0aUTS8-28" vertex="1">
          <mxGeometry y="60" width="180" height="30" as="geometry" />
        </mxCell>
        <mxCell id="PPHQvGL7VuhMwf0aUTS8-33" value="" style="shape=partialRectangle;connectable=0;fillColor=none;top=0;left=0;bottom=0;right=0;editable=1;overflow=hidden;whiteSpace=wrap;html=1;" parent="PPHQvGL7VuhMwf0aUTS8-32" vertex="1">
          <mxGeometry width="30" height="30" as="geometry">
            <mxRectangle width="30" height="30" as="alternateBounds" />
          </mxGeometry>
        </mxCell>
        <mxCell id="PPHQvGL7VuhMwf0aUTS8-34" value="&lt;b&gt;team_Name&lt;/b&gt;" style="shape=partialRectangle;connectable=0;fillColor=none;top=0;left=0;bottom=0;right=0;align=left;spacingLeft=6;overflow=hidden;whiteSpace=wrap;html=1;" parent="PPHQvGL7VuhMwf0aUTS8-32" vertex="1">
          <mxGeometry x="30" width="150" height="30" as="geometry">
            <mxRectangle width="150" height="30" as="alternateBounds" />
          </mxGeometry>
        </mxCell>
        <mxCell id="PPHQvGL7VuhMwf0aUTS8-35" value="" style="shape=tableRow;horizontal=0;startSize=0;swimlaneHead=0;swimlaneBody=0;fillColor=none;collapsible=0;dropTarget=0;points=[[0,0.5],[1,0.5]];portConstraint=eastwest;top=0;left=0;right=0;bottom=0;" parent="PPHQvGL7VuhMwf0aUTS8-28" vertex="1">
          <mxGeometry y="90" width="180" height="30" as="geometry" />
        </mxCell>
        <mxCell id="PPHQvGL7VuhMwf0aUTS8-36" value="&lt;b&gt;UK&lt;/b&gt;" style="shape=partialRectangle;connectable=0;fillColor=none;top=0;left=0;bottom=0;right=0;editable=1;overflow=hidden;whiteSpace=wrap;html=1;" parent="PPHQvGL7VuhMwf0aUTS8-35" vertex="1">
          <mxGeometry width="30" height="30" as="geometry">
            <mxRectangle width="30" height="30" as="alternateBounds" />
          </mxGeometry>
        </mxCell>
        <mxCell id="PPHQvGL7VuhMwf0aUTS8-37" value="&lt;b&gt;team_number&lt;/b&gt;" style="shape=partialRectangle;connectable=0;fillColor=none;top=0;left=0;bottom=0;right=0;align=left;spacingLeft=6;overflow=hidden;whiteSpace=wrap;html=1;" parent="PPHQvGL7VuhMwf0aUTS8-35" vertex="1">
          <mxGeometry x="30" width="150" height="30" as="geometry">
            <mxRectangle width="150" height="30" as="alternateBounds" />
          </mxGeometry>
        </mxCell>
        <mxCell id="PPHQvGL7VuhMwf0aUTS8-38" value="" style="shape=tableRow;horizontal=0;startSize=0;swimlaneHead=0;swimlaneBody=0;fillColor=none;collapsible=0;dropTarget=0;points=[[0,0.5],[1,0.5]];portConstraint=eastwest;top=0;left=0;right=0;bottom=0;" parent="PPHQvGL7VuhMwf0aUTS8-28" vertex="1">
          <mxGeometry y="120" width="180" height="30" as="geometry" />
        </mxCell>
        <mxCell id="PPHQvGL7VuhMwf0aUTS8-39" value="FK" style="shape=partialRectangle;connectable=0;fillColor=none;top=0;left=0;bottom=0;right=0;editable=1;overflow=hidden;whiteSpace=wrap;html=1;" parent="PPHQvGL7VuhMwf0aUTS8-38" vertex="1">
          <mxGeometry width="30" height="30" as="geometry">
            <mxRectangle width="30" height="30" as="alternateBounds" />
          </mxGeometry>
        </mxCell>
        <mxCell id="PPHQvGL7VuhMwf0aUTS8-40" value="caption_id" style="shape=partialRectangle;connectable=0;fillColor=none;top=0;left=0;bottom=0;right=0;align=left;spacingLeft=6;overflow=hidden;whiteSpace=wrap;html=1;" parent="PPHQvGL7VuhMwf0aUTS8-38" vertex="1">
          <mxGeometry x="30" width="150" height="30" as="geometry">
            <mxRectangle width="150" height="30" as="alternateBounds" />
          </mxGeometry>
        </mxCell>
        <mxCell id="PPHQvGL7VuhMwf0aUTS8-41" value="" style="shape=tableRow;horizontal=0;startSize=0;swimlaneHead=0;swimlaneBody=0;fillColor=none;collapsible=0;dropTarget=0;points=[[0,0.5],[1,0.5]];portConstraint=eastwest;top=0;left=0;right=0;bottom=0;" parent="PPHQvGL7VuhMwf0aUTS8-28" vertex="1">
          <mxGeometry y="150" width="180" height="30" as="geometry" />
        </mxCell>
        <mxCell id="PPHQvGL7VuhMwf0aUTS8-42" value="" style="shape=partialRectangle;connectable=0;fillColor=none;top=0;left=0;bottom=0;right=0;editable=1;overflow=hidden;whiteSpace=wrap;html=1;" parent="PPHQvGL7VuhMwf0aUTS8-41" vertex="1">
          <mxGeometry width="30" height="30" as="geometry">
            <mxRectangle width="30" height="30" as="alternateBounds" />
          </mxGeometry>
        </mxCell>
        <mxCell id="PPHQvGL7VuhMwf0aUTS8-43" value="" style="shape=partialRectangle;connectable=0;fillColor=none;top=0;left=0;bottom=0;right=0;align=left;spacingLeft=6;overflow=hidden;whiteSpace=wrap;html=1;" parent="PPHQvGL7VuhMwf0aUTS8-41" vertex="1">
          <mxGeometry x="30" width="150" height="30" as="geometry">
            <mxRectangle width="150" height="30" as="alternateBounds" />
          </mxGeometry>
        </mxCell>
        <mxCell id="PPHQvGL7VuhMwf0aUTS8-44" value="sponsor" style="shape=table;startSize=30;container=1;collapsible=1;childLayout=tableLayout;fixedRows=1;rowLines=0;fontStyle=1;align=center;resizeLast=1;html=1;" parent="1" vertex="1">
          <mxGeometry x="650" y="400" width="180" height="150" as="geometry" />
        </mxCell>
        <mxCell id="PPHQvGL7VuhMwf0aUTS8-45" value="" style="shape=tableRow;horizontal=0;startSize=0;swimlaneHead=0;swimlaneBody=0;fillColor=none;collapsible=0;dropTarget=0;points=[[0,0.5],[1,0.5]];portConstraint=eastwest;top=0;left=0;right=0;bottom=1;" parent="PPHQvGL7VuhMwf0aUTS8-44" vertex="1">
          <mxGeometry y="30" width="180" height="30" as="geometry" />
        </mxCell>
        <mxCell id="PPHQvGL7VuhMwf0aUTS8-46" value="PK" style="shape=partialRectangle;connectable=0;fillColor=none;top=0;left=0;bottom=0;right=0;fontStyle=1;overflow=hidden;whiteSpace=wrap;html=1;" parent="PPHQvGL7VuhMwf0aUTS8-45" vertex="1">
          <mxGeometry width="30" height="30" as="geometry">
            <mxRectangle width="30" height="30" as="alternateBounds" />
          </mxGeometry>
        </mxCell>
        <mxCell id="PPHQvGL7VuhMwf0aUTS8-47" value="sponsor_id" style="shape=partialRectangle;connectable=0;fillColor=none;top=0;left=0;bottom=0;right=0;align=left;spacingLeft=6;fontStyle=5;overflow=hidden;whiteSpace=wrap;html=1;" parent="PPHQvGL7VuhMwf0aUTS8-45" vertex="1">
          <mxGeometry x="30" width="150" height="30" as="geometry">
            <mxRectangle width="150" height="30" as="alternateBounds" />
          </mxGeometry>
        </mxCell>
        <mxCell id="PPHQvGL7VuhMwf0aUTS8-48" value="" style="shape=tableRow;horizontal=0;startSize=0;swimlaneHead=0;swimlaneBody=0;fillColor=none;collapsible=0;dropTarget=0;points=[[0,0.5],[1,0.5]];portConstraint=eastwest;top=0;left=0;right=0;bottom=0;" parent="PPHQvGL7VuhMwf0aUTS8-44" vertex="1">
          <mxGeometry y="60" width="180" height="30" as="geometry" />
        </mxCell>
        <mxCell id="PPHQvGL7VuhMwf0aUTS8-49" value="" style="shape=partialRectangle;connectable=0;fillColor=none;top=0;left=0;bottom=0;right=0;editable=1;overflow=hidden;whiteSpace=wrap;html=1;" parent="PPHQvGL7VuhMwf0aUTS8-48" vertex="1">
          <mxGeometry width="30" height="30" as="geometry">
            <mxRectangle width="30" height="30" as="alternateBounds" />
          </mxGeometry>
        </mxCell>
        <mxCell id="PPHQvGL7VuhMwf0aUTS8-50" value="&lt;b&gt;sponsor_name&lt;/b&gt;" style="shape=partialRectangle;connectable=0;fillColor=none;top=0;left=0;bottom=0;right=0;align=left;spacingLeft=6;overflow=hidden;whiteSpace=wrap;html=1;" parent="PPHQvGL7VuhMwf0aUTS8-48" vertex="1">
          <mxGeometry x="30" width="150" height="30" as="geometry">
            <mxRectangle width="150" height="30" as="alternateBounds" />
          </mxGeometry>
        </mxCell>
        <mxCell id="PPHQvGL7VuhMwf0aUTS8-51" value="" style="shape=tableRow;horizontal=0;startSize=0;swimlaneHead=0;swimlaneBody=0;fillColor=none;collapsible=0;dropTarget=0;points=[[0,0.5],[1,0.5]];portConstraint=eastwest;top=0;left=0;right=0;bottom=0;" parent="PPHQvGL7VuhMwf0aUTS8-44" vertex="1">
          <mxGeometry y="90" width="180" height="30" as="geometry" />
        </mxCell>
        <mxCell id="PPHQvGL7VuhMwf0aUTS8-52" value="" style="shape=partialRectangle;connectable=0;fillColor=none;top=0;left=0;bottom=0;right=0;editable=1;overflow=hidden;whiteSpace=wrap;html=1;" parent="PPHQvGL7VuhMwf0aUTS8-51" vertex="1">
          <mxGeometry width="30" height="30" as="geometry">
            <mxRectangle width="30" height="30" as="alternateBounds" />
          </mxGeometry>
        </mxCell>
        <mxCell id="PPHQvGL7VuhMwf0aUTS8-53" value="&lt;b&gt;contact_person&lt;/b&gt;" style="shape=partialRectangle;connectable=0;fillColor=none;top=0;left=0;bottom=0;right=0;align=left;spacingLeft=6;overflow=hidden;whiteSpace=wrap;html=1;" parent="PPHQvGL7VuhMwf0aUTS8-51" vertex="1">
          <mxGeometry x="30" width="150" height="30" as="geometry">
            <mxRectangle width="150" height="30" as="alternateBounds" />
          </mxGeometry>
        </mxCell>
        <mxCell id="PPHQvGL7VuhMwf0aUTS8-54" value="" style="shape=tableRow;horizontal=0;startSize=0;swimlaneHead=0;swimlaneBody=0;fillColor=none;collapsible=0;dropTarget=0;points=[[0,0.5],[1,0.5]];portConstraint=eastwest;top=0;left=0;right=0;bottom=0;" parent="PPHQvGL7VuhMwf0aUTS8-44" vertex="1">
          <mxGeometry y="120" width="180" height="30" as="geometry" />
        </mxCell>
        <mxCell id="PPHQvGL7VuhMwf0aUTS8-55" value="FK" style="shape=partialRectangle;connectable=0;fillColor=none;top=0;left=0;bottom=0;right=0;editable=1;overflow=hidden;whiteSpace=wrap;html=1;" parent="PPHQvGL7VuhMwf0aUTS8-54" vertex="1">
          <mxGeometry width="30" height="30" as="geometry">
            <mxRectangle width="30" height="30" as="alternateBounds" />
          </mxGeometry>
        </mxCell>
        <mxCell id="PPHQvGL7VuhMwf0aUTS8-56" value="team_id" style="shape=partialRectangle;connectable=0;fillColor=none;top=0;left=0;bottom=0;right=0;align=left;spacingLeft=6;overflow=hidden;whiteSpace=wrap;html=1;" parent="PPHQvGL7VuhMwf0aUTS8-54" vertex="1">
          <mxGeometry x="30" width="150" height="30" as="geometry">
            <mxRectangle width="150" height="30" as="alternateBounds" />
          </mxGeometry>
        </mxCell>
        <mxCell id="PPHQvGL7VuhMwf0aUTS8-57" style="edgeStyle=orthogonalEdgeStyle;rounded=0;orthogonalLoop=1;jettySize=auto;html=1;endArrow=ERmandOne;endFill=0;startArrow=ERmany;startFill=0;dashed=1;strokeWidth=2;exitX=1;exitY=0.5;exitDx=0;exitDy=0;" parent="1" source="PPHQvGL7VuhMwf0aUTS8-117" target="PPHQvGL7VuhMwf0aUTS8-4" edge="1">
          <mxGeometry relative="1" as="geometry" />
        </mxCell>
        <mxCell id="PPHQvGL7VuhMwf0aUTS8-58" value="&lt;span&gt;played by&lt;br&gt;&lt;br&gt;&lt;/span&gt;" style="edgeLabel;html=1;align=center;verticalAlign=middle;resizable=0;points=[];fontStyle=1" parent="PPHQvGL7VuhMwf0aUTS8-57" connectable="0" vertex="1">
          <mxGeometry x="-0.0808" relative="1" as="geometry">
            <mxPoint x="40" y="-34" as="offset" />
          </mxGeometry>
        </mxCell>
        <mxCell id="PPHQvGL7VuhMwf0aUTS8-59" value="Position" style="shape=table;startSize=30;container=1;collapsible=1;childLayout=tableLayout;fixedRows=1;rowLines=0;fontStyle=1;align=center;resizeLast=1;html=1;" parent="1" vertex="1">
          <mxGeometry x="20" y="90" width="180" height="90" as="geometry" />
        </mxCell>
        <mxCell id="PPHQvGL7VuhMwf0aUTS8-60" value="" style="shape=tableRow;horizontal=0;startSize=0;swimlaneHead=0;swimlaneBody=0;fillColor=none;collapsible=0;dropTarget=0;points=[[0,0.5],[1,0.5]];portConstraint=eastwest;top=0;left=0;right=0;bottom=1;" parent="PPHQvGL7VuhMwf0aUTS8-59" vertex="1">
          <mxGeometry y="30" width="180" height="30" as="geometry" />
        </mxCell>
        <mxCell id="PPHQvGL7VuhMwf0aUTS8-61" value="PK" style="shape=partialRectangle;connectable=0;fillColor=none;top=0;left=0;bottom=0;right=0;fontStyle=1;overflow=hidden;whiteSpace=wrap;html=1;" parent="PPHQvGL7VuhMwf0aUTS8-60" vertex="1">
          <mxGeometry width="30" height="30" as="geometry">
            <mxRectangle width="30" height="30" as="alternateBounds" />
          </mxGeometry>
        </mxCell>
        <mxCell id="PPHQvGL7VuhMwf0aUTS8-62" value="position_id" style="shape=partialRectangle;connectable=0;fillColor=none;top=0;left=0;bottom=0;right=0;align=left;spacingLeft=6;fontStyle=5;overflow=hidden;whiteSpace=wrap;html=1;" parent="PPHQvGL7VuhMwf0aUTS8-60" vertex="1">
          <mxGeometry x="30" width="150" height="30" as="geometry">
            <mxRectangle width="150" height="30" as="alternateBounds" />
          </mxGeometry>
        </mxCell>
        <mxCell id="PPHQvGL7VuhMwf0aUTS8-63" value="" style="shape=tableRow;horizontal=0;startSize=0;swimlaneHead=0;swimlaneBody=0;fillColor=none;collapsible=0;dropTarget=0;points=[[0,0.5],[1,0.5]];portConstraint=eastwest;top=0;left=0;right=0;bottom=0;" parent="PPHQvGL7VuhMwf0aUTS8-59" vertex="1">
          <mxGeometry y="60" width="180" height="30" as="geometry" />
        </mxCell>
        <mxCell id="PPHQvGL7VuhMwf0aUTS8-64" value="" style="shape=partialRectangle;connectable=0;fillColor=none;top=0;left=0;bottom=0;right=0;editable=1;overflow=hidden;whiteSpace=wrap;html=1;" parent="PPHQvGL7VuhMwf0aUTS8-63" vertex="1">
          <mxGeometry width="30" height="30" as="geometry">
            <mxRectangle width="30" height="30" as="alternateBounds" />
          </mxGeometry>
        </mxCell>
        <mxCell id="PPHQvGL7VuhMwf0aUTS8-65" value="&lt;b&gt;position_name&lt;/b&gt;" style="shape=partialRectangle;connectable=0;fillColor=none;top=0;left=0;bottom=0;right=0;align=left;spacingLeft=6;overflow=hidden;whiteSpace=wrap;html=1;" parent="PPHQvGL7VuhMwf0aUTS8-63" vertex="1">
          <mxGeometry x="30" width="150" height="30" as="geometry">
            <mxRectangle width="150" height="30" as="alternateBounds" />
          </mxGeometry>
        </mxCell>
        <mxCell id="PPHQvGL7VuhMwf0aUTS8-66" style="edgeStyle=orthogonalEdgeStyle;rounded=0;orthogonalLoop=1;jettySize=auto;html=1;entryX=0;entryY=0.5;entryDx=0;entryDy=0;endArrow=ERmany;endFill=0;startArrow=ERmany;startFill=0;dashed=1;strokeWidth=2;" parent="1" source="PPHQvGL7VuhMwf0aUTS8-68" target="PPHQvGL7VuhMwf0aUTS8-32" edge="1">
          <mxGeometry relative="1" as="geometry" />
        </mxCell>
        <mxCell id="PPHQvGL7VuhMwf0aUTS8-67" value="&lt;b&gt;have&lt;br&gt;assigned to&lt;br&gt;&lt;/b&gt;" style="edgeLabel;html=1;align=center;verticalAlign=middle;resizable=0;points=[];" parent="PPHQvGL7VuhMwf0aUTS8-66" connectable="0" vertex="1">
          <mxGeometry x="-0.544" y="1" relative="1" as="geometry">
            <mxPoint as="offset" />
          </mxGeometry>
        </mxCell>
        <mxCell id="PPHQvGL7VuhMwf0aUTS8-68" value="Coach" style="shape=table;startSize=30;container=1;collapsible=1;childLayout=tableLayout;fixedRows=1;rowLines=0;fontStyle=1;align=center;resizeLast=1;html=1;" parent="1" vertex="1">
          <mxGeometry x="45" y="756.25" width="210" height="190" as="geometry" />
        </mxCell>
        <mxCell id="PPHQvGL7VuhMwf0aUTS8-69" value="" style="shape=tableRow;horizontal=0;startSize=0;swimlaneHead=0;swimlaneBody=0;fillColor=none;collapsible=0;dropTarget=0;points=[[0,0.5],[1,0.5]];portConstraint=eastwest;top=0;left=0;right=0;bottom=1;" parent="PPHQvGL7VuhMwf0aUTS8-68" vertex="1">
          <mxGeometry y="30" width="210" height="30" as="geometry" />
        </mxCell>
        <mxCell id="PPHQvGL7VuhMwf0aUTS8-70" value="PK" style="shape=partialRectangle;connectable=0;fillColor=none;top=0;left=0;bottom=0;right=0;fontStyle=1;overflow=hidden;whiteSpace=wrap;html=1;" parent="PPHQvGL7VuhMwf0aUTS8-69" vertex="1">
          <mxGeometry width="30" height="30" as="geometry">
            <mxRectangle width="30" height="30" as="alternateBounds" />
          </mxGeometry>
        </mxCell>
        <mxCell id="PPHQvGL7VuhMwf0aUTS8-71" value="coach_id" style="shape=partialRectangle;connectable=0;fillColor=none;top=0;left=0;bottom=0;right=0;align=left;spacingLeft=6;fontStyle=5;overflow=hidden;whiteSpace=wrap;html=1;" parent="PPHQvGL7VuhMwf0aUTS8-69" vertex="1">
          <mxGeometry x="30" width="180" height="30" as="geometry">
            <mxRectangle width="180" height="30" as="alternateBounds" />
          </mxGeometry>
        </mxCell>
        <mxCell id="PPHQvGL7VuhMwf0aUTS8-72" value="" style="shape=tableRow;horizontal=0;startSize=0;swimlaneHead=0;swimlaneBody=0;fillColor=none;collapsible=0;dropTarget=0;points=[[0,0.5],[1,0.5]];portConstraint=eastwest;top=0;left=0;right=0;bottom=0;" parent="PPHQvGL7VuhMwf0aUTS8-68" vertex="1">
          <mxGeometry y="60" width="210" height="30" as="geometry" />
        </mxCell>
        <mxCell id="PPHQvGL7VuhMwf0aUTS8-73" value="" style="shape=partialRectangle;connectable=0;fillColor=none;top=0;left=0;bottom=0;right=0;editable=1;overflow=hidden;whiteSpace=wrap;html=1;" parent="PPHQvGL7VuhMwf0aUTS8-72" vertex="1">
          <mxGeometry width="30" height="30" as="geometry">
            <mxRectangle width="30" height="30" as="alternateBounds" />
          </mxGeometry>
        </mxCell>
        <mxCell id="PPHQvGL7VuhMwf0aUTS8-74" value="&lt;b&gt;first_name&lt;/b&gt;" style="shape=partialRectangle;connectable=0;fillColor=none;top=0;left=0;bottom=0;right=0;align=left;spacingLeft=6;overflow=hidden;whiteSpace=wrap;html=1;" parent="PPHQvGL7VuhMwf0aUTS8-72" vertex="1">
          <mxGeometry x="30" width="180" height="30" as="geometry">
            <mxRectangle width="180" height="30" as="alternateBounds" />
          </mxGeometry>
        </mxCell>
        <mxCell id="PPHQvGL7VuhMwf0aUTS8-75" value="" style="shape=tableRow;horizontal=0;startSize=0;swimlaneHead=0;swimlaneBody=0;fillColor=none;collapsible=0;dropTarget=0;points=[[0,0.5],[1,0.5]];portConstraint=eastwest;top=0;left=0;right=0;bottom=0;" parent="PPHQvGL7VuhMwf0aUTS8-68" vertex="1">
          <mxGeometry y="90" width="210" height="30" as="geometry" />
        </mxCell>
        <mxCell id="PPHQvGL7VuhMwf0aUTS8-76" value="" style="shape=partialRectangle;connectable=0;fillColor=none;top=0;left=0;bottom=0;right=0;editable=1;overflow=hidden;whiteSpace=wrap;html=1;" parent="PPHQvGL7VuhMwf0aUTS8-75" vertex="1">
          <mxGeometry width="30" height="30" as="geometry">
            <mxRectangle width="30" height="30" as="alternateBounds" />
          </mxGeometry>
        </mxCell>
        <mxCell id="PPHQvGL7VuhMwf0aUTS8-77" value="&lt;b&gt;last_name&lt;/b&gt;" style="shape=partialRectangle;connectable=0;fillColor=none;top=0;left=0;bottom=0;right=0;align=left;spacingLeft=6;overflow=hidden;whiteSpace=wrap;html=1;" parent="PPHQvGL7VuhMwf0aUTS8-75" vertex="1">
          <mxGeometry x="30" width="180" height="30" as="geometry">
            <mxRectangle width="180" height="30" as="alternateBounds" />
          </mxGeometry>
        </mxCell>
        <mxCell id="PPHQvGL7VuhMwf0aUTS8-78" value="" style="shape=tableRow;horizontal=0;startSize=0;swimlaneHead=0;swimlaneBody=0;fillColor=none;collapsible=0;dropTarget=0;points=[[0,0.5],[1,0.5]];portConstraint=eastwest;top=0;left=0;right=0;bottom=0;" parent="PPHQvGL7VuhMwf0aUTS8-68" vertex="1">
          <mxGeometry y="120" width="210" height="30" as="geometry" />
        </mxCell>
        <mxCell id="PPHQvGL7VuhMwf0aUTS8-79" value="" style="shape=partialRectangle;connectable=0;fillColor=none;top=0;left=0;bottom=0;right=0;editable=1;overflow=hidden;whiteSpace=wrap;html=1;" parent="PPHQvGL7VuhMwf0aUTS8-78" vertex="1">
          <mxGeometry width="30" height="30" as="geometry">
            <mxRectangle width="30" height="30" as="alternateBounds" />
          </mxGeometry>
        </mxCell>
        <mxCell id="PPHQvGL7VuhMwf0aUTS8-80" value="years_coaching" style="shape=partialRectangle;connectable=0;fillColor=none;top=0;left=0;bottom=0;right=0;align=left;spacingLeft=6;overflow=hidden;whiteSpace=wrap;html=1;" parent="PPHQvGL7VuhMwf0aUTS8-78" vertex="1">
          <mxGeometry x="30" width="180" height="30" as="geometry">
            <mxRectangle width="180" height="30" as="alternateBounds" />
          </mxGeometry>
        </mxCell>
        <mxCell id="PPHQvGL7VuhMwf0aUTS8-81" value="" style="shape=tableRow;horizontal=0;startSize=0;swimlaneHead=0;swimlaneBody=0;fillColor=none;collapsible=0;dropTarget=0;points=[[0,0.5],[1,0.5]];portConstraint=eastwest;top=0;left=0;right=0;bottom=0;" parent="PPHQvGL7VuhMwf0aUTS8-68" vertex="1">
          <mxGeometry y="150" width="210" height="30" as="geometry" />
        </mxCell>
        <mxCell id="PPHQvGL7VuhMwf0aUTS8-82" value="&lt;b&gt;UK&lt;/b&gt;" style="shape=partialRectangle;connectable=0;fillColor=none;top=0;left=0;bottom=0;right=0;editable=1;overflow=hidden;whiteSpace=wrap;html=1;" parent="PPHQvGL7VuhMwf0aUTS8-81" vertex="1">
          <mxGeometry width="30" height="30" as="geometry">
            <mxRectangle width="30" height="30" as="alternateBounds" />
          </mxGeometry>
        </mxCell>
        <mxCell id="PPHQvGL7VuhMwf0aUTS8-83" value="coaching_certificate_number" style="shape=partialRectangle;connectable=0;fillColor=none;top=0;left=0;bottom=0;right=0;align=left;spacingLeft=6;overflow=hidden;whiteSpace=wrap;html=1;" parent="PPHQvGL7VuhMwf0aUTS8-81" vertex="1">
          <mxGeometry x="30" width="180" height="30" as="geometry">
            <mxRectangle width="180" height="30" as="alternateBounds" />
          </mxGeometry>
        </mxCell>
        <mxCell id="PPHQvGL7VuhMwf0aUTS8-84" style="edgeStyle=orthogonalEdgeStyle;rounded=0;orthogonalLoop=1;jettySize=auto;html=1;entryX=1;entryY=0.5;entryDx=0;entryDy=0;endArrow=ERmandOne;endFill=0;startArrow=ERmany;startFill=0;dashed=1;strokeWidth=2;" parent="1" source="n6k4Wyby833YIJ4wE5Ku-4" target="PPHQvGL7VuhMwf0aUTS8-35" edge="1">
          <mxGeometry relative="1" as="geometry" />
        </mxCell>
        <mxCell id="PPHQvGL7VuhMwf0aUTS8-85" value="&lt;b&gt;be assigned&amp;nbsp;&lt;br&gt;&lt;/b&gt;" style="edgeLabel;html=1;align=center;verticalAlign=middle;resizable=0;points=[];" parent="PPHQvGL7VuhMwf0aUTS8-84" connectable="0" vertex="1">
          <mxGeometry x="-0.6438" y="1" relative="1" as="geometry">
            <mxPoint x="-63" y="-126" as="offset" />
          </mxGeometry>
        </mxCell>
        <mxCell id="PPHQvGL7VuhMwf0aUTS8-86" value="Color" style="shape=table;startSize=30;container=1;collapsible=1;childLayout=tableLayout;fixedRows=1;rowLines=0;fontStyle=1;align=center;resizeLast=1;html=1;" parent="1" vertex="1">
          <mxGeometry x="650" y="575" width="180" height="90" as="geometry" />
        </mxCell>
        <mxCell id="PPHQvGL7VuhMwf0aUTS8-87" value="" style="shape=tableRow;horizontal=0;startSize=0;swimlaneHead=0;swimlaneBody=0;fillColor=none;collapsible=0;dropTarget=0;points=[[0,0.5],[1,0.5]];portConstraint=eastwest;top=0;left=0;right=0;bottom=1;" parent="PPHQvGL7VuhMwf0aUTS8-86" vertex="1">
          <mxGeometry y="30" width="180" height="30" as="geometry" />
        </mxCell>
        <mxCell id="PPHQvGL7VuhMwf0aUTS8-88" value="PK" style="shape=partialRectangle;connectable=0;fillColor=none;top=0;left=0;bottom=0;right=0;fontStyle=1;overflow=hidden;whiteSpace=wrap;html=1;" parent="PPHQvGL7VuhMwf0aUTS8-87" vertex="1">
          <mxGeometry width="30" height="30" as="geometry">
            <mxRectangle width="30" height="30" as="alternateBounds" />
          </mxGeometry>
        </mxCell>
        <mxCell id="PPHQvGL7VuhMwf0aUTS8-89" value="color_id" style="shape=partialRectangle;connectable=0;fillColor=none;top=0;left=0;bottom=0;right=0;align=left;spacingLeft=6;fontStyle=5;overflow=hidden;whiteSpace=wrap;html=1;" parent="PPHQvGL7VuhMwf0aUTS8-87" vertex="1">
          <mxGeometry x="30" width="150" height="30" as="geometry">
            <mxRectangle width="150" height="30" as="alternateBounds" />
          </mxGeometry>
        </mxCell>
        <mxCell id="PPHQvGL7VuhMwf0aUTS8-90" value="" style="shape=tableRow;horizontal=0;startSize=0;swimlaneHead=0;swimlaneBody=0;fillColor=none;collapsible=0;dropTarget=0;points=[[0,0.5],[1,0.5]];portConstraint=eastwest;top=0;left=0;right=0;bottom=0;" parent="PPHQvGL7VuhMwf0aUTS8-86" vertex="1">
          <mxGeometry y="60" width="180" height="30" as="geometry" />
        </mxCell>
        <mxCell id="PPHQvGL7VuhMwf0aUTS8-91" value="" style="shape=partialRectangle;connectable=0;fillColor=none;top=0;left=0;bottom=0;right=0;editable=1;overflow=hidden;whiteSpace=wrap;html=1;" parent="PPHQvGL7VuhMwf0aUTS8-90" vertex="1">
          <mxGeometry width="30" height="30" as="geometry">
            <mxRectangle width="30" height="30" as="alternateBounds" />
          </mxGeometry>
        </mxCell>
        <mxCell id="PPHQvGL7VuhMwf0aUTS8-92" value="&lt;b&gt;color_name&lt;/b&gt;" style="shape=partialRectangle;connectable=0;fillColor=none;top=0;left=0;bottom=0;right=0;align=left;spacingLeft=6;overflow=hidden;whiteSpace=wrap;html=1;" parent="PPHQvGL7VuhMwf0aUTS8-90" vertex="1">
          <mxGeometry x="30" width="150" height="30" as="geometry">
            <mxRectangle width="150" height="30" as="alternateBounds" />
          </mxGeometry>
        </mxCell>
        <mxCell id="PPHQvGL7VuhMwf0aUTS8-93" style="rounded=0;orthogonalLoop=1;jettySize=auto;html=1;endArrow=ERmany;endFill=0;startArrow=ERone;startFill=0;dashed=1;strokeWidth=2;entryX=0;entryY=0.5;entryDx=0;entryDy=0;exitX=0;exitY=0.5;exitDx=0;exitDy=0;edgeStyle=orthogonalEdgeStyle;" parent="1" source="PPHQvGL7VuhMwf0aUTS8-29" target="PPHQvGL7VuhMwf0aUTS8-25" edge="1">
          <mxGeometry relative="1" as="geometry">
            <mxPoint x="330" y="550" as="sourcePoint" />
            <mxPoint x="430" y="500" as="targetPoint" />
          </mxGeometry>
        </mxCell>
        <mxCell id="PPHQvGL7VuhMwf0aUTS8-95" style="edgeStyle=orthogonalEdgeStyle;rounded=0;orthogonalLoop=1;jettySize=auto;html=1;exitX=1;exitY=0.5;exitDx=0;exitDy=0;endArrow=ERmany;endFill=0;startArrow=ERone;startFill=0;dashed=1;strokeWidth=2;" parent="1" source="PPHQvGL7VuhMwf0aUTS8-29" target="PPHQvGL7VuhMwf0aUTS8-54" edge="1">
          <mxGeometry relative="1" as="geometry" />
        </mxCell>
        <mxCell id="PPHQvGL7VuhMwf0aUTS8-97" style="edgeStyle=orthogonalEdgeStyle;rounded=0;orthogonalLoop=1;jettySize=auto;html=1;entryX=1.003;entryY=0.944;entryDx=0;entryDy=0;entryPerimeter=0;endArrow=ERone;endFill=0;startArrow=ERone;startFill=0;dashed=1;strokeWidth=2;" parent="1" source="PPHQvGL7VuhMwf0aUTS8-38" target="PPHQvGL7VuhMwf0aUTS8-4" edge="1">
          <mxGeometry relative="1" as="geometry" />
        </mxCell>
        <mxCell id="PPHQvGL7VuhMwf0aUTS8-99" value="Guardians" style="shape=table;startSize=30;container=1;collapsible=1;childLayout=tableLayout;fixedRows=1;rowLines=0;fontStyle=1;align=center;resizeLast=1;html=1;" parent="1" vertex="1">
          <mxGeometry x="610" y="260" width="180" height="120" as="geometry" />
        </mxCell>
        <mxCell id="PPHQvGL7VuhMwf0aUTS8-100" value="" style="shape=tableRow;horizontal=0;startSize=0;swimlaneHead=0;swimlaneBody=0;fillColor=none;collapsible=0;dropTarget=0;points=[[0,0.5],[1,0.5]];portConstraint=eastwest;top=0;left=0;right=0;bottom=1;" parent="PPHQvGL7VuhMwf0aUTS8-99" vertex="1">
          <mxGeometry y="30" width="180" height="30" as="geometry" />
        </mxCell>
        <mxCell id="PPHQvGL7VuhMwf0aUTS8-101" value="PK" style="shape=partialRectangle;connectable=0;fillColor=none;top=0;left=0;bottom=0;right=0;fontStyle=1;overflow=hidden;whiteSpace=wrap;html=1;" parent="PPHQvGL7VuhMwf0aUTS8-100" vertex="1">
          <mxGeometry width="30" height="30" as="geometry">
            <mxRectangle width="30" height="30" as="alternateBounds" />
          </mxGeometry>
        </mxCell>
        <mxCell id="PPHQvGL7VuhMwf0aUTS8-102" value="guardian_id" style="shape=partialRectangle;connectable=0;fillColor=none;top=0;left=0;bottom=0;right=0;align=left;spacingLeft=6;fontStyle=5;overflow=hidden;whiteSpace=wrap;html=1;" parent="PPHQvGL7VuhMwf0aUTS8-100" vertex="1">
          <mxGeometry x="30" width="150" height="30" as="geometry">
            <mxRectangle width="150" height="30" as="alternateBounds" />
          </mxGeometry>
        </mxCell>
        <mxCell id="PPHQvGL7VuhMwf0aUTS8-106" value="" style="shape=tableRow;horizontal=0;startSize=0;swimlaneHead=0;swimlaneBody=0;fillColor=none;collapsible=0;dropTarget=0;points=[[0,0.5],[1,0.5]];portConstraint=eastwest;top=0;left=0;right=0;bottom=0;" parent="PPHQvGL7VuhMwf0aUTS8-99" vertex="1">
          <mxGeometry y="60" width="180" height="30" as="geometry" />
        </mxCell>
        <mxCell id="PPHQvGL7VuhMwf0aUTS8-107" value="" style="shape=partialRectangle;connectable=0;fillColor=none;top=0;left=0;bottom=0;right=0;editable=1;overflow=hidden;whiteSpace=wrap;html=1;" parent="PPHQvGL7VuhMwf0aUTS8-106" vertex="1">
          <mxGeometry width="30" height="30" as="geometry">
            <mxRectangle width="30" height="30" as="alternateBounds" />
          </mxGeometry>
        </mxCell>
        <mxCell id="PPHQvGL7VuhMwf0aUTS8-108" value="&lt;b&gt;first_name&lt;/b&gt;" style="shape=partialRectangle;connectable=0;fillColor=none;top=0;left=0;bottom=0;right=0;align=left;spacingLeft=6;overflow=hidden;whiteSpace=wrap;html=1;" parent="PPHQvGL7VuhMwf0aUTS8-106" vertex="1">
          <mxGeometry x="30" width="150" height="30" as="geometry">
            <mxRectangle width="150" height="30" as="alternateBounds" />
          </mxGeometry>
        </mxCell>
        <mxCell id="PPHQvGL7VuhMwf0aUTS8-109" value="" style="shape=tableRow;horizontal=0;startSize=0;swimlaneHead=0;swimlaneBody=0;fillColor=none;collapsible=0;dropTarget=0;points=[[0,0.5],[1,0.5]];portConstraint=eastwest;top=0;left=0;right=0;bottom=0;" parent="PPHQvGL7VuhMwf0aUTS8-99" vertex="1">
          <mxGeometry y="90" width="180" height="30" as="geometry" />
        </mxCell>
        <mxCell id="PPHQvGL7VuhMwf0aUTS8-110" value="" style="shape=partialRectangle;connectable=0;fillColor=none;top=0;left=0;bottom=0;right=0;editable=1;overflow=hidden;whiteSpace=wrap;html=1;" parent="PPHQvGL7VuhMwf0aUTS8-109" vertex="1">
          <mxGeometry width="30" height="30" as="geometry">
            <mxRectangle width="30" height="30" as="alternateBounds" />
          </mxGeometry>
        </mxCell>
        <mxCell id="PPHQvGL7VuhMwf0aUTS8-111" value="&lt;b&gt;last_name&lt;/b&gt;" style="shape=partialRectangle;connectable=0;fillColor=none;top=0;left=0;bottom=0;right=0;align=left;spacingLeft=6;overflow=hidden;whiteSpace=wrap;html=1;" parent="PPHQvGL7VuhMwf0aUTS8-109" vertex="1">
          <mxGeometry x="30" width="150" height="30" as="geometry">
            <mxRectangle width="150" height="30" as="alternateBounds" />
          </mxGeometry>
        </mxCell>
        <mxCell id="PPHQvGL7VuhMwf0aUTS8-112" value="&lt;div style=&quot;&quot;&gt;&lt;br&gt;&lt;/div&gt;&lt;div style=&quot;&quot;&gt;&lt;span style=&quot;background-color: initial;&quot;&gt;Each player &lt;/span&gt;&lt;u style=&quot;background-color: initial;&quot;&gt;can&lt;/u&gt;&lt;span style=&quot;background-color: initial;&quot;&gt; &lt;/span&gt;&lt;font style=&quot;background-color: initial;&quot; color=&quot;#00ff80&quot;&gt;play for &lt;/font&gt;&lt;font style=&quot;background-color: initial;&quot; color=&quot;#0000cc&quot;&gt;one or more than one&lt;/font&gt;&lt;span style=&quot;background-color: initial;&quot;&gt; team.&lt;/span&gt;&lt;/div&gt;&lt;div style=&quot;&quot;&gt;&lt;span style=&quot;background-color: initial;&quot;&gt;Each team &lt;/span&gt;&lt;u style=&quot;background-color: initial;&quot;&gt;can&lt;/u&gt;&lt;span style=&quot;background-color: initial;&quot;&gt; &lt;/span&gt;&lt;font style=&quot;background-color: initial;&quot; color=&quot;#00cc66&quot;&gt;have&lt;/font&gt;&lt;span style=&quot;background-color: initial;&quot;&gt; &lt;/span&gt;&lt;font style=&quot;background-color: initial;&quot; color=&quot;#0000cc&quot;&gt;one or more than one&lt;/font&gt;&lt;span style=&quot;background-color: initial;&quot;&gt; player.&lt;/span&gt;&lt;/div&gt;&lt;div style=&quot;&quot;&gt;&lt;br&gt;&lt;/div&gt;&lt;div style=&quot;&quot;&gt;&lt;span style=&quot;background-color: initial;&quot;&gt;Each player &lt;/span&gt;&lt;u style=&quot;background-color: initial;&quot;&gt;can&lt;/u&gt;&lt;span style=&quot;background-color: initial;&quot;&gt; &lt;/span&gt;&lt;font style=&quot;background-color: initial;&quot; color=&quot;#00cc66&quot;&gt;have&lt;/font&gt;&lt;span style=&quot;background-color: initial;&quot;&gt; &lt;/span&gt;&lt;font style=&quot;background-color: initial;&quot; color=&quot;#0000cc&quot;&gt;one or more than one&lt;/font&gt;&lt;span style=&quot;background-color: initial;&quot;&gt; PositionPlayer(position).&lt;/span&gt;&lt;/div&gt;&lt;div style=&quot;&quot;&gt;&lt;span style=&quot;background-color: initial;&quot;&gt;Each PositionPlayer &lt;/span&gt;&lt;u style=&quot;background-color: initial;&quot;&gt;must&lt;/u&gt;&lt;span style=&quot;background-color: initial;&quot;&gt; &lt;/span&gt;&lt;font style=&quot;background-color: initial;&quot; color=&quot;#00cc66&quot;&gt;have&lt;/font&gt;&lt;span style=&quot;background-color: initial;&quot;&gt; &lt;/span&gt;&lt;font style=&quot;background-color: initial;&quot; color=&quot;#0000cc&quot;&gt;one and only one&lt;/font&gt;&lt;span style=&quot;background-color: initial;&quot;&gt; player.&lt;/span&gt;&lt;/div&gt;&lt;div style=&quot;&quot;&gt;&lt;span style=&quot;background-color: initial;&quot;&gt;Each Positon &lt;/span&gt;&lt;u style=&quot;background-color: initial;&quot;&gt;can&lt;/u&gt;&lt;span style=&quot;background-color: initial;&quot;&gt; &lt;/span&gt;&lt;font style=&quot;background-color: initial;&quot; color=&quot;#00cc66&quot;&gt;have&lt;/font&gt;&lt;span style=&quot;background-color: initial;&quot;&gt; &lt;/span&gt;&lt;font style=&quot;background-color: initial;&quot; color=&quot;#0000cc&quot;&gt;one or more than one&lt;/font&gt;&lt;span style=&quot;background-color: initial;&quot;&gt; PositionPlayer(player).&lt;/span&gt;&lt;/div&gt;&lt;div style=&quot;&quot;&gt;&lt;span style=&quot;background-color: initial;&quot;&gt;Each PositionPlayer &lt;/span&gt;&lt;u style=&quot;background-color: initial;&quot;&gt;must&lt;/u&gt;&lt;span style=&quot;background-color: initial;&quot;&gt; &lt;/span&gt;&lt;font style=&quot;background-color: initial;&quot; color=&quot;#00cc66&quot;&gt;have&lt;/font&gt;&lt;span style=&quot;background-color: initial;&quot;&gt; &lt;/span&gt;&lt;font style=&quot;background-color: initial;&quot; color=&quot;#0000cc&quot;&gt;one and only&lt;/font&gt;&lt;span style=&quot;background-color: initial;&quot;&gt; Position.&lt;/span&gt;&lt;/div&gt;&lt;div style=&quot;&quot;&gt;&lt;br&gt;&lt;/div&gt;&lt;div style=&quot;&quot;&gt;&lt;br&gt;&lt;/div&gt;&lt;div style=&quot;&quot;&gt;&lt;span style=&quot;background-color: initial;&quot;&gt;Each player &lt;/span&gt;&lt;u style=&quot;background-color: initial;&quot;&gt;can&lt;/u&gt;&lt;span style=&quot;background-color: initial;&quot;&gt; &lt;/span&gt;&lt;font style=&quot;background-color: initial;&quot; color=&quot;#00cc66&quot;&gt;have&lt;/font&gt;&lt;span style=&quot;background-color: initial;&quot;&gt; &lt;/span&gt;&lt;font style=&quot;background-color: initial;&quot; color=&quot;#0000cc&quot;&gt;one or more than one&lt;/font&gt;&lt;span style=&quot;background-color: initial;&quot;&gt; PlayerGuardian(Guardians).&lt;/span&gt;&lt;/div&gt;&lt;div style=&quot;&quot;&gt;&lt;span style=&quot;background-color: initial;&quot;&gt;Each PlayerGuardian &lt;/span&gt;&lt;u style=&quot;background-color: initial;&quot;&gt;must&lt;/u&gt;&lt;span style=&quot;background-color: initial;&quot;&gt; &lt;/span&gt;&lt;font style=&quot;background-color: initial;&quot; color=&quot;#00cc66&quot;&gt;be assigned to&lt;/font&gt;&lt;span style=&quot;background-color: initial;&quot;&gt; &lt;/span&gt;&lt;font style=&quot;background-color: initial;&quot; color=&quot;#0000cc&quot;&gt;one and only one&lt;/font&gt;&lt;span style=&quot;background-color: initial;&quot;&gt; player.&lt;/span&gt;&lt;/div&gt;&lt;div style=&quot;&quot;&gt;&lt;span style=&quot;background-color: initial;&quot;&gt;Each guardian &lt;/span&gt;&lt;u style=&quot;background-color: initial;&quot;&gt;can&lt;/u&gt;&lt;span style=&quot;background-color: initial;&quot;&gt; &lt;/span&gt;&lt;font style=&quot;background-color: initial;&quot; color=&quot;#00cc66&quot;&gt;have&lt;/font&gt;&lt;span style=&quot;background-color: initial;&quot;&gt; &lt;/span&gt;&lt;font style=&quot;background-color: initial;&quot; color=&quot;#0000cc&quot;&gt;one or more than one&lt;/font&gt;&lt;span style=&quot;background-color: initial;&quot;&gt; PlayerGuardian(player).&lt;/span&gt;&lt;/div&gt;&lt;div style=&quot;&quot;&gt;&lt;span style=&quot;background-color: initial;&quot;&gt;Each playerGuardian &lt;/span&gt;&lt;u style=&quot;background-color: initial;&quot;&gt;must&lt;/u&gt;&lt;span style=&quot;background-color: initial;&quot;&gt; &lt;/span&gt;&lt;font style=&quot;background-color: initial;&quot; color=&quot;#00cc66&quot;&gt;be assigned to&lt;/font&gt;&lt;span style=&quot;background-color: initial;&quot;&gt; &lt;/span&gt;&lt;font style=&quot;background-color: initial;&quot; color=&quot;#0000cc&quot;&gt;one and only&lt;/font&gt;&lt;span style=&quot;background-color: initial;&quot;&gt; guardian.&lt;/span&gt;&lt;/div&gt;&lt;div style=&quot;&quot;&gt;&lt;br&gt;&lt;/div&gt;&lt;div style=&quot;&quot;&gt;&lt;span style=&quot;background-color: initial;&quot;&gt;Each team &lt;/span&gt;&lt;u style=&quot;background-color: initial;&quot;&gt;can&lt;/u&gt;&lt;font style=&quot;background-color: initial;&quot; color=&quot;#00cc66&quot;&gt; have&lt;/font&gt;&lt;span style=&quot;background-color: initial;&quot;&gt; &lt;/span&gt;&lt;font style=&quot;background-color: initial;&quot; color=&quot;#0000cc&quot;&gt;one or more than one&lt;/font&gt;&lt;span style=&quot;background-color: initial;&quot;&gt; sponsor&lt;/span&gt;&lt;/div&gt;&lt;div style=&quot;&quot;&gt;&lt;span style=&quot;background-color: initial;&quot;&gt;Each sponsor &lt;/span&gt;&lt;u style=&quot;background-color: initial;&quot;&gt;can&lt;/u&gt;&lt;span style=&quot;background-color: initial;&quot;&gt; &lt;/span&gt;&lt;font style=&quot;background-color: initial;&quot; color=&quot;#00cc66&quot;&gt;support&lt;/font&gt;&lt;span style=&quot;background-color: initial;&quot;&gt; &lt;/span&gt;&lt;font style=&quot;background-color: initial;&quot; color=&quot;#0000cc&quot;&gt;only one&lt;/font&gt;&lt;span style=&quot;background-color: initial;&quot;&gt; team.&lt;/span&gt;&lt;/div&gt;&lt;div style=&quot;&quot;&gt;&lt;br&gt;&lt;/div&gt;&lt;div style=&quot;&quot;&gt;&lt;span style=&quot;background-color: initial;&quot;&gt;Each team &lt;/span&gt;&lt;u style=&quot;background-color: initial;&quot;&gt;has&lt;/u&gt;&lt;span style=&quot;background-color: initial;&quot;&gt; &lt;/span&gt;&lt;font style=&quot;background-color: initial;&quot; color=&quot;#0000cc&quot;&gt;one or more than one&lt;/font&gt;&lt;span style=&quot;background-color: initial;&quot;&gt; coach.&lt;/span&gt;&lt;/div&gt;&lt;div style=&quot;&quot;&gt;&lt;span style=&quot;background-color: initial;&quot;&gt;Each coach &lt;/span&gt;&lt;u style=&quot;background-color: initial;&quot;&gt;can&lt;/u&gt;&lt;span style=&quot;background-color: initial;&quot;&gt; &lt;/span&gt;&lt;font style=&quot;background-color: initial;&quot; color=&quot;#00cc66&quot;&gt;be assigned to&lt;/font&gt;&lt;span style=&quot;background-color: initial;&quot;&gt; &lt;/span&gt;&lt;font style=&quot;background-color: initial;&quot; color=&quot;#0000cc&quot;&gt;one or more than one&lt;/font&gt;&lt;span style=&quot;background-color: initial;&quot;&gt; team.&lt;/span&gt;&lt;/div&gt;&lt;div style=&quot;&quot;&gt;&lt;br&gt;&lt;/div&gt;&lt;div style=&quot;&quot;&gt;&lt;span style=&quot;background-color: initial;&quot;&gt;Each team &lt;/span&gt;&lt;u style=&quot;background-color: initial;&quot;&gt;can&lt;/u&gt;&lt;span style=&quot;background-color: initial;&quot;&gt; &lt;/span&gt;&lt;font style=&quot;background-color: initial;&quot; color=&quot;#00cc66&quot;&gt;have&lt;/font&gt;&lt;span style=&quot;background-color: initial;&quot;&gt; &lt;/span&gt;&lt;font style=&quot;background-color: initial;&quot; color=&quot;#0000cc&quot;&gt;one or more than one&lt;/font&gt;&lt;span style=&quot;background-color: initial;&quot;&gt; TeamColor(color).&lt;/span&gt;&lt;/div&gt;&lt;div style=&quot;&quot;&gt;&lt;span style=&quot;background-color: initial;&quot;&gt;Each TeamColor &lt;/span&gt;&lt;u style=&quot;background-color: initial;&quot;&gt;must&lt;/u&gt;&lt;span style=&quot;background-color: initial;&quot;&gt; &lt;/span&gt;&lt;font style=&quot;background-color: initial;&quot; color=&quot;#00cc66&quot;&gt;have&lt;/font&gt;&lt;span style=&quot;background-color: initial;&quot;&gt; &lt;/span&gt;&lt;font style=&quot;background-color: initial;&quot; color=&quot;#0000cc&quot;&gt;one and only one&lt;/font&gt;&lt;span style=&quot;background-color: initial;&quot;&gt; team.&lt;/span&gt;&lt;/div&gt;&lt;div style=&quot;&quot;&gt;&lt;span style=&quot;background-color: initial;&quot;&gt;Each color &lt;/span&gt;&lt;u style=&quot;background-color: initial;&quot;&gt;can&lt;/u&gt;&lt;span style=&quot;background-color: initial;&quot;&gt; &lt;/span&gt;&lt;font style=&quot;background-color: initial;&quot; color=&quot;#00cc66&quot;&gt;have&lt;/font&gt;&lt;span style=&quot;background-color: initial;&quot;&gt; &lt;/span&gt;&lt;font style=&quot;background-color: initial;&quot; color=&quot;#0000cc&quot;&gt;one or more than one&lt;/font&gt;&lt;span style=&quot;background-color: initial;&quot;&gt; TemColor(team)&lt;/span&gt;&lt;/div&gt;&lt;div style=&quot;&quot;&gt;&lt;span style=&quot;background-color: initial;&quot;&gt;Each teamcolor &lt;/span&gt;&lt;u style=&quot;background-color: initial;&quot;&gt;is&lt;/u&gt;&lt;span style=&quot;background-color: initial;&quot;&gt; &lt;/span&gt;&lt;font style=&quot;background-color: initial;&quot; color=&quot;#00cc66&quot;&gt;assigned to&lt;/font&gt;&lt;span style=&quot;background-color: initial;&quot;&gt; &lt;/span&gt;&lt;font style=&quot;background-color: initial;&quot; color=&quot;#0000cc&quot;&gt;one and only&lt;/font&gt;&lt;span style=&quot;background-color: initial;&quot;&gt; color.&lt;/span&gt;&lt;/div&gt;" style="text;html=1;align=center;verticalAlign=middle;resizable=0;points=[];autosize=1;strokeColor=none;fillColor=none;" parent="1" vertex="1">
          <mxGeometry x="340" y="720" width="410" height="370" as="geometry" />
        </mxCell>
        <mxCell id="PPHQvGL7VuhMwf0aUTS8-113" value="PlayerPosition&amp;nbsp;" style="shape=table;startSize=30;container=1;collapsible=1;childLayout=tableLayout;fixedRows=1;rowLines=0;fontStyle=1;align=center;resizeLast=1;html=1;whiteSpace=wrap;" parent="1" vertex="1">
          <mxGeometry x="10" y="200" width="180" height="90" as="geometry" />
        </mxCell>
        <mxCell id="PPHQvGL7VuhMwf0aUTS8-114" value="" style="shape=tableRow;horizontal=0;startSize=0;swimlaneHead=0;swimlaneBody=0;fillColor=none;collapsible=0;dropTarget=0;points=[[0,0.5],[1,0.5]];portConstraint=eastwest;top=0;left=0;right=0;bottom=0;html=1;" parent="PPHQvGL7VuhMwf0aUTS8-113" vertex="1">
          <mxGeometry y="30" width="180" height="30" as="geometry" />
        </mxCell>
        <mxCell id="PPHQvGL7VuhMwf0aUTS8-115" value="PK,FK1" style="shape=partialRectangle;connectable=0;fillColor=none;top=0;left=0;bottom=0;right=0;fontStyle=1;overflow=hidden;html=1;whiteSpace=wrap;" parent="PPHQvGL7VuhMwf0aUTS8-114" vertex="1">
          <mxGeometry width="60" height="30" as="geometry">
            <mxRectangle width="60" height="30" as="alternateBounds" />
          </mxGeometry>
        </mxCell>
        <mxCell id="PPHQvGL7VuhMwf0aUTS8-116" value="postion_id" style="shape=partialRectangle;connectable=0;fillColor=none;top=0;left=0;bottom=0;right=0;align=left;spacingLeft=6;fontStyle=5;overflow=hidden;html=1;whiteSpace=wrap;" parent="PPHQvGL7VuhMwf0aUTS8-114" vertex="1">
          <mxGeometry x="60" width="120" height="30" as="geometry">
            <mxRectangle width="120" height="30" as="alternateBounds" />
          </mxGeometry>
        </mxCell>
        <mxCell id="PPHQvGL7VuhMwf0aUTS8-117" value="" style="shape=tableRow;horizontal=0;startSize=0;swimlaneHead=0;swimlaneBody=0;fillColor=none;collapsible=0;dropTarget=0;points=[[0,0.5],[1,0.5]];portConstraint=eastwest;top=0;left=0;right=0;bottom=1;html=1;" parent="PPHQvGL7VuhMwf0aUTS8-113" vertex="1">
          <mxGeometry y="60" width="180" height="30" as="geometry" />
        </mxCell>
        <mxCell id="PPHQvGL7VuhMwf0aUTS8-118" value="PK,FK2" style="shape=partialRectangle;connectable=0;fillColor=none;top=0;left=0;bottom=0;right=0;fontStyle=1;overflow=hidden;html=1;whiteSpace=wrap;" parent="PPHQvGL7VuhMwf0aUTS8-117" vertex="1">
          <mxGeometry width="60" height="30" as="geometry">
            <mxRectangle width="60" height="30" as="alternateBounds" />
          </mxGeometry>
        </mxCell>
        <mxCell id="PPHQvGL7VuhMwf0aUTS8-119" value="player_id" style="shape=partialRectangle;connectable=0;fillColor=none;top=0;left=0;bottom=0;right=0;align=left;spacingLeft=6;fontStyle=5;overflow=hidden;html=1;whiteSpace=wrap;" parent="PPHQvGL7VuhMwf0aUTS8-117" vertex="1">
          <mxGeometry x="60" width="120" height="30" as="geometry">
            <mxRectangle width="120" height="30" as="alternateBounds" />
          </mxGeometry>
        </mxCell>
        <mxCell id="PPHQvGL7VuhMwf0aUTS8-126" style="edgeStyle=orthogonalEdgeStyle;rounded=0;orthogonalLoop=1;jettySize=auto;html=1;exitX=1;exitY=0.5;exitDx=0;exitDy=0;entryX=1;entryY=0.5;entryDx=0;entryDy=0;dashed=1;strokeWidth=2;endArrow=ERmandOne;endFill=0;startArrow=ERmany;startFill=0;" parent="1" source="PPHQvGL7VuhMwf0aUTS8-114" target="PPHQvGL7VuhMwf0aUTS8-60" edge="1">
          <mxGeometry relative="1" as="geometry" />
        </mxCell>
        <mxCell id="PPHQvGL7VuhMwf0aUTS8-140" value="PlayerGuardian" style="shape=table;startSize=30;container=1;collapsible=1;childLayout=tableLayout;fixedRows=1;rowLines=0;fontStyle=1;align=center;resizeLast=1;html=1;whiteSpace=wrap;" parent="1" vertex="1">
          <mxGeometry x="660" y="90" width="180" height="120" as="geometry" />
        </mxCell>
        <mxCell id="PPHQvGL7VuhMwf0aUTS8-141" value="" style="shape=tableRow;horizontal=0;startSize=0;swimlaneHead=0;swimlaneBody=0;fillColor=none;collapsible=0;dropTarget=0;points=[[0,0.5],[1,0.5]];portConstraint=eastwest;top=0;left=0;right=0;bottom=0;html=1;" parent="PPHQvGL7VuhMwf0aUTS8-140" vertex="1">
          <mxGeometry y="30" width="180" height="30" as="geometry" />
        </mxCell>
        <mxCell id="PPHQvGL7VuhMwf0aUTS8-142" value="PK,FK1" style="shape=partialRectangle;connectable=0;fillColor=none;top=0;left=0;bottom=0;right=0;fontStyle=1;overflow=hidden;html=1;whiteSpace=wrap;" parent="PPHQvGL7VuhMwf0aUTS8-141" vertex="1">
          <mxGeometry width="60" height="30" as="geometry">
            <mxRectangle width="60" height="30" as="alternateBounds" />
          </mxGeometry>
        </mxCell>
        <mxCell id="PPHQvGL7VuhMwf0aUTS8-143" value="player_id" style="shape=partialRectangle;connectable=0;fillColor=none;top=0;left=0;bottom=0;right=0;align=left;spacingLeft=6;fontStyle=5;overflow=hidden;html=1;whiteSpace=wrap;" parent="PPHQvGL7VuhMwf0aUTS8-141" vertex="1">
          <mxGeometry x="60" width="120" height="30" as="geometry">
            <mxRectangle width="120" height="30" as="alternateBounds" />
          </mxGeometry>
        </mxCell>
        <mxCell id="PPHQvGL7VuhMwf0aUTS8-144" value="" style="shape=tableRow;horizontal=0;startSize=0;swimlaneHead=0;swimlaneBody=0;fillColor=none;collapsible=0;dropTarget=0;points=[[0,0.5],[1,0.5]];portConstraint=eastwest;top=0;left=0;right=0;bottom=1;html=1;" parent="PPHQvGL7VuhMwf0aUTS8-140" vertex="1">
          <mxGeometry y="60" width="180" height="30" as="geometry" />
        </mxCell>
        <mxCell id="PPHQvGL7VuhMwf0aUTS8-145" value="PK,FK2" style="shape=partialRectangle;connectable=0;fillColor=none;top=0;left=0;bottom=0;right=0;fontStyle=1;overflow=hidden;html=1;whiteSpace=wrap;" parent="PPHQvGL7VuhMwf0aUTS8-144" vertex="1">
          <mxGeometry width="60" height="30" as="geometry">
            <mxRectangle width="60" height="30" as="alternateBounds" />
          </mxGeometry>
        </mxCell>
        <mxCell id="PPHQvGL7VuhMwf0aUTS8-146" value="guardian_id" style="shape=partialRectangle;connectable=0;fillColor=none;top=0;left=0;bottom=0;right=0;align=left;spacingLeft=6;fontStyle=5;overflow=hidden;html=1;whiteSpace=wrap;" parent="PPHQvGL7VuhMwf0aUTS8-144" vertex="1">
          <mxGeometry x="60" width="120" height="30" as="geometry">
            <mxRectangle width="120" height="30" as="alternateBounds" />
          </mxGeometry>
        </mxCell>
        <mxCell id="PPHQvGL7VuhMwf0aUTS8-150" value="" style="shape=tableRow;horizontal=0;startSize=0;swimlaneHead=0;swimlaneBody=0;fillColor=none;collapsible=0;dropTarget=0;points=[[0,0.5],[1,0.5]];portConstraint=eastwest;top=0;left=0;right=0;bottom=0;html=1;" parent="PPHQvGL7VuhMwf0aUTS8-140" vertex="1">
          <mxGeometry y="90" width="180" height="30" as="geometry" />
        </mxCell>
        <mxCell id="PPHQvGL7VuhMwf0aUTS8-151" value="" style="shape=partialRectangle;connectable=0;fillColor=none;top=0;left=0;bottom=0;right=0;editable=1;overflow=hidden;html=1;whiteSpace=wrap;" parent="PPHQvGL7VuhMwf0aUTS8-150" vertex="1">
          <mxGeometry width="60" height="30" as="geometry">
            <mxRectangle width="60" height="30" as="alternateBounds" />
          </mxGeometry>
        </mxCell>
        <mxCell id="PPHQvGL7VuhMwf0aUTS8-152" value="Row 4" style="shape=partialRectangle;connectable=0;fillColor=none;top=0;left=0;bottom=0;right=0;align=left;spacingLeft=6;overflow=hidden;html=1;whiteSpace=wrap;" parent="PPHQvGL7VuhMwf0aUTS8-150" vertex="1">
          <mxGeometry x="60" width="120" height="30" as="geometry">
            <mxRectangle width="120" height="30" as="alternateBounds" />
          </mxGeometry>
        </mxCell>
        <mxCell id="n6k4Wyby833YIJ4wE5Ku-1" style="edgeStyle=orthogonalEdgeStyle;rounded=0;orthogonalLoop=1;jettySize=auto;html=1;endArrow=ERmany;endFill=0;startArrow=ERmandOne;startFill=0;dashed=1;strokeWidth=2;entryX=0;entryY=0.5;entryDx=0;entryDy=0;" parent="1" source="PPHQvGL7VuhMwf0aUTS8-100" target="PPHQvGL7VuhMwf0aUTS8-144" edge="1">
          <mxGeometry relative="1" as="geometry">
            <mxPoint x="660" y="135" as="targetPoint" />
            <mxPoint x="620" y="200" as="sourcePoint" />
          </mxGeometry>
        </mxCell>
        <mxCell id="n6k4Wyby833YIJ4wE5Ku-3" value="TeamColor" style="shape=table;startSize=30;container=1;collapsible=1;childLayout=tableLayout;fixedRows=1;rowLines=0;fontStyle=1;align=center;resizeLast=1;html=1;whiteSpace=wrap;" parent="1" vertex="1">
          <mxGeometry x="390" y="620" width="180" height="90" as="geometry" />
        </mxCell>
        <mxCell id="n6k4Wyby833YIJ4wE5Ku-4" value="" style="shape=tableRow;horizontal=0;startSize=0;swimlaneHead=0;swimlaneBody=0;fillColor=none;collapsible=0;dropTarget=0;points=[[0,0.5],[1,0.5]];portConstraint=eastwest;top=0;left=0;right=0;bottom=0;html=1;" parent="n6k4Wyby833YIJ4wE5Ku-3" vertex="1">
          <mxGeometry y="30" width="180" height="30" as="geometry" />
        </mxCell>
        <mxCell id="n6k4Wyby833YIJ4wE5Ku-5" value="PK,FK1" style="shape=partialRectangle;connectable=0;fillColor=none;top=0;left=0;bottom=0;right=0;fontStyle=1;overflow=hidden;html=1;whiteSpace=wrap;" parent="n6k4Wyby833YIJ4wE5Ku-4" vertex="1">
          <mxGeometry width="60" height="30" as="geometry">
            <mxRectangle width="60" height="30" as="alternateBounds" />
          </mxGeometry>
        </mxCell>
        <mxCell id="n6k4Wyby833YIJ4wE5Ku-6" value="team_id" style="shape=partialRectangle;connectable=0;fillColor=none;top=0;left=0;bottom=0;right=0;align=left;spacingLeft=6;fontStyle=5;overflow=hidden;html=1;whiteSpace=wrap;" parent="n6k4Wyby833YIJ4wE5Ku-4" vertex="1">
          <mxGeometry x="60" width="120" height="30" as="geometry">
            <mxRectangle width="120" height="30" as="alternateBounds" />
          </mxGeometry>
        </mxCell>
        <mxCell id="n6k4Wyby833YIJ4wE5Ku-7" value="" style="shape=tableRow;horizontal=0;startSize=0;swimlaneHead=0;swimlaneBody=0;fillColor=none;collapsible=0;dropTarget=0;points=[[0,0.5],[1,0.5]];portConstraint=eastwest;top=0;left=0;right=0;bottom=1;html=1;" parent="n6k4Wyby833YIJ4wE5Ku-3" vertex="1">
          <mxGeometry y="60" width="180" height="30" as="geometry" />
        </mxCell>
        <mxCell id="n6k4Wyby833YIJ4wE5Ku-8" value="PK,FK2" style="shape=partialRectangle;connectable=0;fillColor=none;top=0;left=0;bottom=0;right=0;fontStyle=1;overflow=hidden;html=1;whiteSpace=wrap;" parent="n6k4Wyby833YIJ4wE5Ku-7" vertex="1">
          <mxGeometry width="60" height="30" as="geometry">
            <mxRectangle width="60" height="30" as="alternateBounds" />
          </mxGeometry>
        </mxCell>
        <mxCell id="n6k4Wyby833YIJ4wE5Ku-9" value="color_id" style="shape=partialRectangle;connectable=0;fillColor=none;top=0;left=0;bottom=0;right=0;align=left;spacingLeft=6;fontStyle=5;overflow=hidden;html=1;whiteSpace=wrap;" parent="n6k4Wyby833YIJ4wE5Ku-7" vertex="1">
          <mxGeometry x="60" width="120" height="30" as="geometry">
            <mxRectangle width="120" height="30" as="alternateBounds" />
          </mxGeometry>
        </mxCell>
        <mxCell id="n6k4Wyby833YIJ4wE5Ku-16" style="edgeStyle=orthogonalEdgeStyle;rounded=0;orthogonalLoop=1;jettySize=auto;html=1;entryX=0;entryY=0.5;entryDx=0;entryDy=0;endArrow=ERmandOne;endFill=0;startArrow=ERmany;startFill=0;dashed=1;strokeWidth=2;" parent="1" source="n6k4Wyby833YIJ4wE5Ku-7" target="PPHQvGL7VuhMwf0aUTS8-87" edge="1">
          <mxGeometry relative="1" as="geometry">
            <mxPoint x="820" y="810" as="sourcePoint" />
            <mxPoint x="660" y="710" as="targetPoint" />
          </mxGeometry>
        </mxCell>
        <mxCell id="n6k4Wyby833YIJ4wE5Ku-17" value="&lt;b&gt;have&lt;br&gt;is assigned to&lt;/b&gt;" style="edgeLabel;html=1;align=center;verticalAlign=middle;resizable=0;points=[];" parent="n6k4Wyby833YIJ4wE5Ku-16" connectable="0" vertex="1">
          <mxGeometry x="-0.6438" y="1" relative="1" as="geometry">
            <mxPoint x="11" y="-42" as="offset" />
          </mxGeometry>
        </mxCell>
        <mxCell id="1H8hNYwwIGYTpCcte1hE-3" value="&lt;span&gt;&lt;br&gt;play&lt;/span&gt;" style="edgeLabel;html=1;align=center;verticalAlign=middle;resizable=0;points=[];fontStyle=1" connectable="0" vertex="1" parent="1">
          <mxGeometry x="210.0011764705883" y="320.0029411764706" as="geometry">
            <mxPoint x="3" y="-27" as="offset" />
          </mxGeometry>
        </mxCell>
        <mxCell id="1H8hNYwwIGYTpCcte1hE-4" value="have" style="text;html=1;strokeColor=none;fillColor=none;align=center;verticalAlign=middle;whiteSpace=wrap;rounded=0;fontStyle=1" vertex="1" parent="1">
          <mxGeometry y="470" width="40" height="20" as="geometry" />
        </mxCell>
        <mxCell id="1H8hNYwwIGYTpCcte1hE-5" value="plays" style="text;html=1;strokeColor=none;fillColor=none;align=center;verticalAlign=middle;whiteSpace=wrap;rounded=0;fontStyle=1" vertex="1" parent="1">
          <mxGeometry x="280" y="360" width="40" height="20" as="geometry" />
        </mxCell>
        <mxCell id="1H8hNYwwIGYTpCcte1hE-6" value="assigned" style="text;html=1;strokeColor=none;fillColor=none;align=center;verticalAlign=middle;whiteSpace=wrap;rounded=0;fontStyle=1" vertex="1" parent="1">
          <mxGeometry x="520" y="140" width="40" height="20" as="geometry" />
        </mxCell>
        <mxCell id="1H8hNYwwIGYTpCcte1hE-7" value="have" style="text;html=1;strokeColor=none;fillColor=none;align=center;verticalAlign=middle;whiteSpace=wrap;rounded=0;fontStyle=1" vertex="1" parent="1">
          <mxGeometry x="620" y="110" width="40" height="20" as="geometry" />
        </mxCell>
        <mxCell id="1H8hNYwwIGYTpCcte1hE-8" value="assigned" style="text;html=1;strokeColor=none;fillColor=none;align=center;verticalAlign=middle;whiteSpace=wrap;rounded=0;fontSize=10;fontStyle=1" vertex="1" parent="1">
          <mxGeometry x="800" y="310" width="40" height="20" as="geometry" />
        </mxCell>
        <mxCell id="1H8hNYwwIGYTpCcte1hE-9" value="have" style="text;html=1;strokeColor=none;fillColor=none;align=center;verticalAlign=middle;whiteSpace=wrap;rounded=0;fontStyle=1" vertex="1" parent="1">
          <mxGeometry x="600" y="160" width="40" height="20" as="geometry" />
        </mxCell>
        <mxCell id="1H8hNYwwIGYTpCcte1hE-10" value="have" style="text;html=1;strokeColor=none;fillColor=none;align=center;verticalAlign=middle;whiteSpace=wrap;rounded=0;fontStyle=1" vertex="1" parent="1">
          <mxGeometry x="240" y="585" width="40" height="20" as="geometry" />
        </mxCell>
        <mxCell id="1H8hNYwwIGYTpCcte1hE-11" value="supported by" style="text;html=1;strokeColor=none;fillColor=none;align=center;verticalAlign=middle;whiteSpace=wrap;rounded=0;fontStyle=1" vertex="1" parent="1">
          <mxGeometry x="540" y="190" width="70" height="20" as="geometry" />
        </mxCell>
        <mxCell id="1H8hNYwwIGYTpCcte1hE-12" value="have" style="text;html=1;strokeColor=none;fillColor=none;align=center;verticalAlign=middle;whiteSpace=wrap;rounded=0;fontStyle=1" vertex="1" parent="1">
          <mxGeometry x="350" y="640" width="40" height="20" as="geometry" />
        </mxCell>
        <mxCell id="1H8hNYwwIGYTpCcte1hE-13" value="have" style="text;html=1;strokeColor=none;fillColor=none;align=center;verticalAlign=middle;whiteSpace=wrap;rounded=0;fontStyle=1" vertex="1" parent="1">
          <mxGeometry x="610" y="510" width="40" height="20" as="geometry" />
        </mxCell>
        <mxCell id="1H8hNYwwIGYTpCcte1hE-15" value="have" style="text;html=1;strokeColor=none;fillColor=none;align=center;verticalAlign=middle;whiteSpace=wrap;rounded=0;fontStyle=1" vertex="1" parent="1">
          <mxGeometry x="240" y="470" width="40" height="20" as="geometry" />
        </mxCell>
        <mxCell id="SzRsh65swW5FbowYPXsU-1" value="&lt;h1&gt;P03-07b&lt;/h1&gt;" style="text;html=1;strokeColor=none;fillColor=none;spacing=5;spacingTop=-20;whiteSpace=wrap;overflow=hidden;rounded=0;" vertex="1" parent="1">
          <mxGeometry x="340" y="20" width="120" height="50" as="geometry" />
        </mxCell>
      </root>
    </mxGraphModel>
  </diagram>
</mxfile>
